<svg width="570" height="344" viewBox="0 0 570 344" fill="none" xmlns="http://www.w3.org/2000/svg">
<rect y="188" width="196" height="62" fill="#245C77"/>
<path d="M212.94 222.16V219.96L219.48 210.6H222.74V219.72H224.5V222.16H222.74V225H219.94V222.16H212.94ZM220.12 213.6L216.02 219.72H220.12V213.6ZM227.843 225.14C227.336 225.14 226.916 224.987 226.583 224.68C226.263 224.36 226.103 223.967 226.103 223.5C226.103 223.033 226.263 222.647 226.583 222.34C226.916 222.02 227.336 221.86 227.843 221.86C228.336 221.86 228.743 222.02 229.063 222.34C229.383 222.647 229.543 223.033 229.543 223.5C229.543 223.967 229.383 224.36 229.063 224.68C228.743 224.987 228.336 225.14 227.843 225.14ZM231.138 213V210.42H235.958V225H233.078V213H231.138ZM238.404 214C238.404 212.987 238.697 212.193 239.284 211.62C239.884 211.047 240.651 210.76 241.584 210.76C242.517 210.76 243.277 211.047 243.864 211.62C244.464 212.193 244.764 212.987 244.764 214C244.764 215.027 244.464 215.827 243.864 216.4C243.277 216.973 242.517 217.26 241.584 217.26C240.651 217.26 239.884 216.973 239.284 216.4C238.697 215.827 238.404 215.027 238.404 214ZM251.244 211L243.384 225H240.664L248.504 211H251.244ZM241.564 212.44C240.831 212.44 240.464 212.96 240.464 214C240.464 215.053 240.831 215.58 241.564 215.58C241.924 215.58 242.204 215.453 242.404 215.2C242.604 214.933 242.704 214.533 242.704 214C242.704 212.96 242.324 212.44 241.564 212.44ZM247.184 221.98C247.184 220.953 247.477 220.16 248.064 219.6C248.664 219.027 249.431 218.74 250.364 218.74C251.297 218.74 252.051 219.027 252.624 219.6C253.211 220.16 253.504 220.953 253.504 221.98C253.504 223.007 253.211 223.807 252.624 224.38C252.051 224.953 251.297 225.24 250.364 225.24C249.417 225.24 248.651 224.953 248.064 224.38C247.477 223.807 247.184 223.007 247.184 221.98ZM250.344 220.42C249.584 220.42 249.204 220.94 249.204 221.98C249.204 223.033 249.584 223.56 250.344 223.56C251.091 223.56 251.464 223.033 251.464 221.98C251.464 220.94 251.091 220.42 250.344 220.42Z" fill="#1F1F26"/>
<path d="M18.344 222.224H22.024V224H16.104V212.832H18.344V222.224ZM24.5838 214.08C24.1891 214.08 23.8584 213.957 23.5918 213.712C23.3358 213.456 23.2078 213.141 23.2078 212.768C23.2078 212.395 23.3358 212.085 23.5918 211.84C23.8584 211.584 24.1891 211.456 24.5838 211.456C24.9784 211.456 25.3038 211.584 25.5598 211.84C25.8264 212.085 25.9598 212.395 25.9598 212.768C25.9598 213.141 25.8264 213.456 25.5598 213.712C25.3038 213.957 24.9784 214.08 24.5838 214.08ZM25.6878 215.136V224H23.4478V215.136H25.6878ZM27.3249 219.552C27.3249 218.667 27.5062 217.883 27.8689 217.2C28.2422 216.507 28.7435 215.968 29.3729 215.584C30.0022 215.2 30.6955 215.008 31.4529 215.008C32.0822 215.008 32.6369 215.131 33.1169 215.376C33.6075 215.611 34.0022 215.915 34.3009 216.288V215.136H36.5569V228.224H34.3009V222.784C34.0022 223.168 33.6022 223.488 33.1009 223.744C32.5995 224 32.0342 224.128 31.4049 224.128C30.6582 224.128 29.9702 223.936 29.3409 223.552C28.7222 223.157 28.2315 222.613 27.8689 221.92C27.5062 221.227 27.3249 220.437 27.3249 219.552ZM34.3009 219.568C34.3009 219.024 34.1889 218.555 33.9649 218.16C33.7409 217.765 33.4475 217.467 33.0849 217.264C32.7329 217.061 32.3542 216.96 31.9489 216.96C31.5542 216.96 31.1755 217.061 30.8129 217.264C30.4609 217.467 30.1729 217.765 29.9489 218.16C29.7249 218.544 29.6129 219.008 29.6129 219.552C29.6129 220.096 29.7249 220.571 29.9489 220.976C30.1729 221.371 30.4609 221.669 30.8129 221.872C31.1755 222.075 31.5542 222.176 31.9489 222.176C32.3542 222.176 32.7329 222.075 33.0849 221.872C33.4475 221.669 33.7409 221.371 33.9649 220.976C34.1889 220.581 34.3009 220.112 34.3009 219.568ZM47.1126 215.136V224H44.8566V222.88C44.5686 223.264 44.19 223.568 43.7206 223.792C43.262 224.005 42.7606 224.112 42.2166 224.112C41.5233 224.112 40.91 223.968 40.3766 223.68C39.8433 223.381 39.422 222.949 39.1126 222.384C38.814 221.808 38.6646 221.125 38.6646 220.336V215.136H40.9046V220.016C40.9046 220.72 41.0806 221.264 41.4326 221.648C41.7846 222.021 42.2646 222.208 42.8726 222.208C43.4913 222.208 43.9766 222.021 44.3286 221.648C44.6806 221.264 44.8566 220.72 44.8566 220.016V215.136H47.1126ZM50.4588 214.08C50.0641 214.08 49.7334 213.957 49.4668 213.712C49.2108 213.456 49.0828 213.141 49.0828 212.768C49.0828 212.395 49.2108 212.085 49.4668 211.84C49.7334 211.584 50.0641 211.456 50.4588 211.456C50.8534 211.456 51.1788 211.584 51.4348 211.84C51.7014 212.085 51.8348 212.395 51.8348 212.768C51.8348 213.141 51.7014 213.456 51.4348 213.712C51.1788 213.957 50.8534 214.08 50.4588 214.08ZM51.5628 215.136V224H49.3228V215.136H51.5628ZM53.1999 219.536C53.1999 218.64 53.3759 217.845 53.7279 217.152C54.0905 216.459 54.5812 215.925 55.1999 215.552C55.8185 215.179 56.5065 214.992 57.2639 214.992C57.8399 214.992 58.3892 215.12 58.9119 215.376C59.4345 215.621 59.8505 215.952 60.1599 216.368V212.16H62.4319V224H60.1599V222.688C59.8825 223.125 59.4932 223.477 58.9919 223.744C58.4905 224.011 57.9092 224.144 57.2479 224.144C56.5012 224.144 55.8185 223.952 55.1999 223.568C54.5812 223.184 54.0905 222.645 53.7279 221.952C53.3759 221.248 53.1999 220.443 53.1999 219.536ZM60.1759 219.568C60.1759 219.024 60.0692 218.56 59.8559 218.176C59.6425 217.781 59.3545 217.483 58.9919 217.28C58.6292 217.067 58.2399 216.96 57.8239 216.96C57.4079 216.96 57.0239 217.061 56.6719 217.264C56.3199 217.467 56.0319 217.765 55.8079 218.16C55.5945 218.544 55.4879 219.003 55.4879 219.536C55.4879 220.069 55.5945 220.539 55.8079 220.944C56.0319 221.339 56.3199 221.643 56.6719 221.856C57.0345 222.069 57.4185 222.176 57.8239 222.176C58.2399 222.176 58.6292 222.075 58.9919 221.872C59.3545 221.659 59.6425 221.36 59.8559 220.976C60.0692 220.581 60.1759 220.112 60.1759 219.568ZM80.6081 212.832V224H78.3681V216.736L75.3761 224H73.6801L70.6721 216.736V224H68.4321V212.832H70.9761L74.5281 221.136L78.0801 212.832H80.6081ZM91.1908 215.136V224H88.9348V222.88C88.6468 223.264 88.2681 223.568 87.7988 223.792C87.3401 224.005 86.8388 224.112 86.2948 224.112C85.6014 224.112 84.9881 223.968 84.4548 223.68C83.9214 223.381 83.5001 222.949 83.1908 222.384C82.8921 221.808 82.7428 221.125 82.7428 220.336V215.136H84.9828V220.016C84.9828 220.72 85.1588 221.264 85.5108 221.648C85.8628 222.021 86.3428 222.208 86.9508 222.208C87.5694 222.208 88.0548 222.021 88.4068 221.648C88.7588 221.264 88.9348 220.72 88.9348 220.016V215.136H91.1908ZM96.0089 216.976V221.264C96.0089 221.563 96.0782 221.781 96.2169 221.92C96.3662 222.048 96.6115 222.112 96.9529 222.112H97.9929V224H96.5849C94.6969 224 93.7529 223.083 93.7529 221.248V216.976H92.6969V215.136H93.7529V212.944H96.0089V215.136H97.9929V216.976H96.0089ZM107.972 215.136V224H105.716V222.88C105.428 223.264 105.049 223.568 104.58 223.792C104.121 224.005 103.62 224.112 103.076 224.112C102.383 224.112 101.769 223.968 101.236 223.68C100.703 223.381 100.281 222.949 99.972 222.384C99.6733 221.808 99.524 221.125 99.524 220.336V215.136H101.764V220.016C101.764 220.72 101.94 221.264 102.292 221.648C102.644 222.021 103.124 222.208 103.732 222.208C104.351 222.208 104.836 222.021 105.188 221.648C105.54 221.264 105.716 220.72 105.716 220.016V215.136H107.972ZM109.606 219.536C109.606 218.64 109.782 217.845 110.134 217.152C110.497 216.459 110.982 215.925 111.59 215.552C112.209 215.179 112.897 214.992 113.654 214.992C114.315 214.992 114.891 215.125 115.382 215.392C115.883 215.659 116.283 215.995 116.582 216.4V215.136H118.838V224H116.582V222.704C116.294 223.12 115.894 223.467 115.382 223.744C114.881 224.011 114.299 224.144 113.638 224.144C112.891 224.144 112.209 223.952 111.59 223.568C110.982 223.184 110.497 222.645 110.134 221.952C109.782 221.248 109.606 220.443 109.606 219.536ZM116.582 219.568C116.582 219.024 116.475 218.56 116.262 218.176C116.049 217.781 115.761 217.483 115.398 217.28C115.035 217.067 114.646 216.96 114.23 216.96C113.814 216.96 113.43 217.061 113.078 217.264C112.726 217.467 112.438 217.765 112.214 218.16C112.001 218.544 111.894 219.003 111.894 219.536C111.894 220.069 112.001 220.539 112.214 220.944C112.438 221.339 112.726 221.643 113.078 221.856C113.441 222.069 113.825 222.176 114.23 222.176C114.646 222.176 115.035 222.075 115.398 221.872C115.761 221.659 116.049 221.36 116.262 220.976C116.475 220.581 116.582 220.112 116.582 219.568ZM123.266 212.16V224H121.026V212.16H123.266ZM136.188 212.832V214.64H131.532V217.504H135.1V219.28H131.532V224H129.292V212.832H136.188ZM146.144 215.136V224H143.888V222.88C143.6 223.264 143.221 223.568 142.752 223.792C142.293 224.005 141.792 224.112 141.248 224.112C140.555 224.112 139.941 223.968 139.408 223.68C138.875 223.381 138.453 222.949 138.144 222.384C137.845 221.808 137.696 221.125 137.696 220.336V215.136H139.936V220.016C139.936 220.72 140.112 221.264 140.464 221.648C140.816 222.021 141.296 222.208 141.904 222.208C142.523 222.208 143.008 222.021 143.36 221.648C143.712 221.264 143.888 220.72 143.888 220.016V215.136H146.144ZM153.266 215.008C154.322 215.008 155.175 215.344 155.826 216.016C156.477 216.677 156.802 217.605 156.802 218.8V224H154.562V219.104C154.562 218.4 154.386 217.861 154.034 217.488C153.682 217.104 153.202 216.912 152.594 216.912C151.975 216.912 151.485 217.104 151.122 217.488C150.77 217.861 150.594 218.4 150.594 219.104V224H148.354V215.136H150.594V216.24C150.893 215.856 151.271 215.557 151.73 215.344C152.199 215.12 152.711 215.008 153.266 215.008ZM158.356 219.536C158.356 218.64 158.532 217.845 158.884 217.152C159.247 216.459 159.737 215.925 160.356 215.552C160.975 215.179 161.663 214.992 162.42 214.992C162.996 214.992 163.545 215.12 164.068 215.376C164.591 215.621 165.007 215.952 165.316 216.368V212.16H167.588V224H165.316V222.688C165.039 223.125 164.649 223.477 164.148 223.744C163.647 224.011 163.065 224.144 162.404 224.144C161.657 224.144 160.975 223.952 160.356 223.568C159.737 223.184 159.247 222.645 158.884 221.952C158.532 221.248 158.356 220.443 158.356 219.536ZM165.332 219.568C165.332 219.024 165.225 218.56 165.012 218.176C164.799 217.781 164.511 217.483 164.148 217.28C163.785 217.067 163.396 216.96 162.98 216.96C162.564 216.96 162.18 217.061 161.828 217.264C161.476 217.467 161.188 217.765 160.964 218.16C160.751 218.544 160.644 219.003 160.644 219.536C160.644 220.069 160.751 220.539 160.964 220.944C161.188 221.339 161.476 221.643 161.828 221.856C162.191 222.069 162.575 222.176 162.98 222.176C163.396 222.176 163.785 222.075 164.148 221.872C164.511 221.659 164.799 221.36 165.012 220.976C165.225 220.581 165.332 220.112 165.332 219.568ZM173.168 224.144C172.443 224.144 171.792 224.016 171.216 223.76C170.64 223.493 170.181 223.136 169.84 222.688C169.509 222.24 169.328 221.744 169.296 221.2H171.552C171.595 221.541 171.76 221.824 172.048 222.048C172.347 222.272 172.715 222.384 173.152 222.384C173.579 222.384 173.909 222.299 174.144 222.128C174.389 221.957 174.512 221.739 174.512 221.472C174.512 221.184 174.363 220.971 174.064 220.832C173.776 220.683 173.312 220.523 172.672 220.352C172.011 220.192 171.467 220.027 171.04 219.856C170.624 219.685 170.261 219.424 169.952 219.072C169.653 218.72 169.504 218.245 169.504 217.648C169.504 217.157 169.643 216.709 169.92 216.304C170.208 215.899 170.613 215.579 171.136 215.344C171.669 215.109 172.293 214.992 173.008 214.992C174.064 214.992 174.907 215.259 175.536 215.792C176.165 216.315 176.512 217.024 176.576 217.92H174.432C174.4 217.568 174.251 217.291 173.984 217.088C173.728 216.875 173.381 216.768 172.944 216.768C172.539 216.768 172.224 216.843 172 216.992C171.787 217.141 171.68 217.349 171.68 217.616C171.68 217.915 171.829 218.144 172.128 218.304C172.427 218.453 172.891 218.608 173.52 218.768C174.16 218.928 174.688 219.093 175.104 219.264C175.52 219.435 175.877 219.701 176.176 220.064C176.485 220.416 176.645 220.885 176.656 221.472C176.656 221.984 176.512 222.443 176.224 222.848C175.947 223.253 175.541 223.573 175.008 223.808C174.485 224.032 173.872 224.144 173.168 224.144Z" fill="white"/>
<rect y="282" width="130" height="62" fill="#245C77"/>
<path d="M149.1 308.26C149.167 306.927 149.633 305.9 150.5 305.18C151.38 304.447 152.533 304.08 153.96 304.08C154.933 304.08 155.767 304.253 156.46 304.6C157.153 304.933 157.673 305.393 158.02 305.98C158.38 306.553 158.56 307.207 158.56 307.94C158.56 308.78 158.34 309.493 157.9 310.08C157.473 310.653 156.96 311.04 156.36 311.24V311.32C157.133 311.56 157.733 311.987 158.16 312.6C158.6 313.213 158.82 314 158.82 314.96C158.82 315.76 158.633 316.473 158.26 317.1C157.9 317.727 157.36 318.22 156.64 318.58C155.933 318.927 155.08 319.1 154.08 319.1C152.573 319.1 151.347 318.72 150.4 317.96C149.453 317.2 148.953 316.08 148.9 314.6H151.62C151.647 315.253 151.867 315.78 152.28 316.18C152.707 316.567 153.287 316.76 154.02 316.76C154.7 316.76 155.22 316.573 155.58 316.2C155.953 315.813 156.14 315.32 156.14 314.72C156.14 313.92 155.887 313.347 155.38 313C154.873 312.653 154.087 312.48 153.02 312.48H152.44V310.18H153.02C154.913 310.18 155.86 309.547 155.86 308.28C155.86 307.707 155.687 307.26 155.34 306.94C155.007 306.62 154.52 306.46 153.88 306.46C153.253 306.46 152.767 306.633 152.42 306.98C152.087 307.313 151.893 307.74 151.84 308.26H149.1ZM160.713 308C160.713 306.987 161.006 306.193 161.593 305.62C162.193 305.047 162.959 304.76 163.893 304.76C164.826 304.76 165.586 305.047 166.173 305.62C166.773 306.193 167.073 306.987 167.073 308C167.073 309.027 166.773 309.827 166.173 310.4C165.586 310.973 164.826 311.26 163.893 311.26C162.959 311.26 162.193 310.973 161.593 310.4C161.006 309.827 160.713 309.027 160.713 308ZM173.553 305L165.693 319H162.973L170.813 305H173.553ZM163.873 306.44C163.139 306.44 162.773 306.96 162.773 308C162.773 309.053 163.139 309.58 163.873 309.58C164.233 309.58 164.513 309.453 164.713 309.2C164.913 308.933 165.013 308.533 165.013 308C165.013 306.96 164.633 306.44 163.873 306.44ZM169.493 315.98C169.493 314.953 169.786 314.16 170.373 313.6C170.973 313.027 171.739 312.74 172.673 312.74C173.606 312.74 174.359 313.027 174.933 313.6C175.519 314.16 175.813 314.953 175.813 315.98C175.813 317.007 175.519 317.807 174.933 318.38C174.359 318.953 173.606 319.24 172.673 319.24C171.726 319.24 170.959 318.953 170.373 318.38C169.786 317.807 169.493 317.007 169.493 315.98ZM172.653 314.42C171.893 314.42 171.513 314.94 171.513 315.98C171.513 317.033 171.893 317.56 172.653 317.56C173.399 317.56 173.773 317.033 173.773 315.98C173.773 314.94 173.399 314.42 172.653 314.42Z" fill="#1F1F26"/>
<path d="M19.96 318.112C19.1813 318.112 18.4773 317.979 17.848 317.712C17.2293 317.445 16.7387 317.061 16.376 316.56C16.0133 316.059 15.8267 315.467 15.816 314.784H18.216C18.248 315.243 18.408 315.605 18.696 315.872C18.9947 316.139 19.4 316.272 19.912 316.272C20.4347 316.272 20.8453 316.149 21.144 315.904C21.4427 315.648 21.592 315.317 21.592 314.912C21.592 314.581 21.4907 314.309 21.288 314.096C21.0853 313.883 20.8293 313.717 20.52 313.6C20.2213 313.472 19.8053 313.333 19.272 313.184C18.5467 312.971 17.9547 312.763 17.496 312.56C17.048 312.347 16.6587 312.032 16.328 311.616C16.008 311.189 15.848 310.624 15.848 309.92C15.848 309.259 16.0133 308.683 16.344 308.192C16.6747 307.701 17.1387 307.328 17.736 307.072C18.3333 306.805 19.016 306.672 19.784 306.672C20.936 306.672 21.8693 306.955 22.584 307.52C23.3093 308.075 23.7093 308.853 23.784 309.856H21.32C21.2987 309.472 21.1333 309.157 20.824 308.912C20.5253 308.656 20.1253 308.528 19.624 308.528C19.1867 308.528 18.8347 308.64 18.568 308.864C18.312 309.088 18.184 309.413 18.184 309.84C18.184 310.139 18.28 310.389 18.472 310.592C18.6747 310.784 18.92 310.944 19.208 311.072C19.5067 311.189 19.9227 311.328 20.456 311.488C21.1813 311.701 21.7733 311.915 22.232 312.128C22.6907 312.341 23.0853 312.661 23.416 313.088C23.7467 313.515 23.912 314.075 23.912 314.768C23.912 315.365 23.7573 315.92 23.448 316.432C23.1387 316.944 22.6853 317.355 22.088 317.664C21.4907 317.963 20.7813 318.112 19.96 318.112ZM25.278 313.536C25.278 312.64 25.454 311.845 25.806 311.152C26.1687 310.459 26.654 309.925 27.262 309.552C27.8807 309.179 28.5687 308.992 29.326 308.992C29.9873 308.992 30.5633 309.125 31.054 309.392C31.5553 309.659 31.9553 309.995 32.254 310.4V309.136H34.51V318H32.254V316.704C31.966 317.12 31.566 317.467 31.054 317.744C30.5527 318.011 29.9713 318.144 29.31 318.144C28.5633 318.144 27.8807 317.952 27.262 317.568C26.654 317.184 26.1687 316.645 25.806 315.952C25.454 315.248 25.278 314.443 25.278 313.536ZM32.254 313.568C32.254 313.024 32.1473 312.56 31.934 312.176C31.7207 311.781 31.4327 311.483 31.07 311.28C30.7073 311.067 30.318 310.96 29.902 310.96C29.486 310.96 29.102 311.061 28.75 311.264C28.398 311.467 28.11 311.765 27.886 312.16C27.6727 312.544 27.566 313.003 27.566 313.536C27.566 314.069 27.6727 314.539 27.886 314.944C28.11 315.339 28.398 315.643 28.75 315.856C29.1127 316.069 29.4967 316.176 29.902 316.176C30.318 316.176 30.7073 316.075 31.07 315.872C31.4327 315.659 31.7207 315.36 31.934 314.976C32.1473 314.581 32.254 314.112 32.254 313.568ZM40.3938 315.936L42.6338 309.136H45.0178L41.7378 318H39.0178L35.7538 309.136H38.1538L40.3938 315.936ZM47.4119 308.08C47.0172 308.08 46.6865 307.957 46.4199 307.712C46.1639 307.456 46.0359 307.141 46.0359 306.768C46.0359 306.395 46.1639 306.085 46.4199 305.84C46.6865 305.584 47.0172 305.456 47.4119 305.456C47.8065 305.456 48.1319 305.584 48.3879 305.84C48.6545 306.085 48.7879 306.395 48.7879 306.768C48.7879 307.141 48.6545 307.456 48.3879 307.712C48.1319 307.957 47.8065 308.08 47.4119 308.08ZM48.5159 309.136V318H46.2759V309.136H48.5159ZM55.641 309.008C56.697 309.008 57.5503 309.344 58.201 310.016C58.8517 310.677 59.177 311.605 59.177 312.8V318H56.937V313.104C56.937 312.4 56.761 311.861 56.409 311.488C56.057 311.104 55.577 310.912 54.969 310.912C54.3503 310.912 53.8597 311.104 53.497 311.488C53.145 311.861 52.969 312.4 52.969 313.104V318H50.729V309.136H52.969V310.24C53.2677 309.856 53.6463 309.557 54.105 309.344C54.5743 309.12 55.0863 309.008 55.641 309.008ZM64.7791 308.992C65.4405 308.992 66.0218 309.125 66.5231 309.392C67.0245 309.648 67.4191 309.984 67.7071 310.4V309.136H69.9631V318.064C69.9631 318.885 69.7978 319.616 69.4671 320.256C69.1365 320.907 68.6405 321.419 67.9791 321.792C67.3178 322.176 66.5178 322.368 65.5791 322.368C64.3205 322.368 63.2858 322.075 62.4751 321.488C61.6751 320.901 61.2218 320.101 61.1151 319.088H63.3391C63.4565 319.493 63.7071 319.813 64.0911 320.048C64.4858 320.293 64.9605 320.416 65.5151 320.416C66.1658 320.416 66.6938 320.219 67.0991 319.824C67.5045 319.44 67.7071 318.853 67.7071 318.064V316.688C67.4191 317.104 67.0191 317.451 66.5071 317.728C66.0058 318.005 65.4298 318.144 64.7791 318.144C64.0325 318.144 63.3498 317.952 62.7311 317.568C62.1125 317.184 61.6218 316.645 61.2591 315.952C60.9071 315.248 60.7311 314.443 60.7311 313.536C60.7311 312.64 60.9071 311.845 61.2591 311.152C61.6218 310.459 62.1071 309.925 62.7151 309.552C63.3338 309.179 64.0218 308.992 64.7791 308.992ZM67.7071 313.568C67.7071 313.024 67.6005 312.56 67.3871 312.176C67.1738 311.781 66.8858 311.483 66.5231 311.28C66.1605 311.067 65.7711 310.96 65.3551 310.96C64.9391 310.96 64.5551 311.061 64.2031 311.264C63.8511 311.467 63.5631 311.765 63.3391 312.16C63.1258 312.544 63.0191 313.003 63.0191 313.536C63.0191 314.069 63.1258 314.539 63.3391 314.944C63.5631 315.339 63.8511 315.643 64.2031 315.856C64.5658 316.069 64.9498 316.176 65.3551 316.176C65.7711 316.176 66.1605 316.075 66.5231 315.872C66.8858 315.659 67.1738 315.36 67.3871 314.976C67.6005 314.581 67.7071 314.112 67.7071 313.568ZM75.5429 318.144C74.8175 318.144 74.1669 318.016 73.5909 317.76C73.0149 317.493 72.5562 317.136 72.2149 316.688C71.8842 316.24 71.7029 315.744 71.6709 315.2H73.9269C73.9695 315.541 74.1349 315.824 74.4229 316.048C74.7215 316.272 75.0895 316.384 75.5269 316.384C75.9535 316.384 76.2842 316.299 76.5189 316.128C76.7642 315.957 76.8869 315.739 76.8869 315.472C76.8869 315.184 76.7375 314.971 76.4389 314.832C76.1509 314.683 75.6869 314.523 75.0469 314.352C74.3855 314.192 73.8415 314.027 73.4149 313.856C72.9989 313.685 72.6362 313.424 72.3269 313.072C72.0282 312.72 71.8789 312.245 71.8789 311.648C71.8789 311.157 72.0175 310.709 72.2949 310.304C72.5829 309.899 72.9882 309.579 73.5109 309.344C74.0442 309.109 74.6682 308.992 75.3829 308.992C76.4389 308.992 77.2815 309.259 77.9109 309.792C78.5402 310.315 78.8869 311.024 78.9509 311.92H76.8069C76.7749 311.568 76.6255 311.291 76.3589 311.088C76.1029 310.875 75.7562 310.768 75.3189 310.768C74.9135 310.768 74.5989 310.843 74.3749 310.992C74.1615 311.141 74.0549 311.349 74.0549 311.616C74.0549 311.915 74.2042 312.144 74.5029 312.304C74.8015 312.453 75.2655 312.608 75.8949 312.768C76.5349 312.928 77.0629 313.093 77.4789 313.264C77.8949 313.435 78.2522 313.701 78.5509 314.064C78.8602 314.416 79.0202 314.885 79.0309 315.472C79.0309 315.984 78.8869 316.443 78.5989 316.848C78.3215 317.253 77.9162 317.573 77.3829 317.808C76.8602 318.032 76.2469 318.144 75.5429 318.144ZM91.5301 315.872H87.0821L86.3461 318H83.9941L88.0101 306.816H90.6181L94.6341 318H92.2661L91.5301 315.872ZM90.9221 314.08L89.3061 309.408L87.6901 314.08H90.9221ZM102.135 302.848L97.8153 320.896H95.6233L99.9433 302.848H102.135ZM103.373 312.4C103.373 311.301 103.618 310.32 104.109 309.456C104.61 308.581 105.287 307.904 106.141 307.424C107.005 306.933 107.97 306.688 109.037 306.688C110.285 306.688 111.378 307.008 112.317 307.648C113.255 308.288 113.911 309.173 114.285 310.304H111.709C111.453 309.771 111.09 309.371 110.621 309.104C110.162 308.837 109.629 308.704 109.021 308.704C108.37 308.704 107.789 308.859 107.277 309.168C106.775 309.467 106.381 309.893 106.093 310.448C105.815 311.003 105.677 311.653 105.677 312.4C105.677 313.136 105.815 313.787 106.093 314.352C106.381 314.907 106.775 315.339 107.277 315.648C107.789 315.947 108.37 316.096 109.021 316.096C109.629 316.096 110.162 315.963 110.621 315.696C111.09 315.419 111.453 315.013 111.709 314.48H114.285C113.911 315.621 113.255 316.512 112.317 317.152C111.389 317.781 110.295 318.096 109.037 318.096C107.97 318.096 107.005 317.856 106.141 317.376C105.287 316.885 104.61 316.208 104.109 315.344C103.618 314.48 103.373 313.499 103.373 312.4Z" fill="white"/>
<rect y="94" width="226" height="62" fill="#245C77"/>
<path d="M251.86 119.84H245.38V123.26C245.66 122.913 246.06 122.633 246.58 122.42C247.1 122.193 247.653 122.08 248.24 122.08C249.307 122.08 250.18 122.313 250.86 122.78C251.54 123.247 252.033 123.847 252.34 124.58C252.647 125.3 252.8 126.073 252.8 126.9C252.8 128.433 252.36 129.667 251.48 130.6C250.613 131.533 249.373 132 247.76 132C246.24 132 245.027 131.62 244.12 130.86C243.213 130.1 242.7 129.107 242.58 127.88H245.3C245.42 128.413 245.687 128.84 246.1 129.16C246.527 129.48 247.067 129.64 247.72 129.64C248.507 129.64 249.1 129.393 249.5 128.9C249.9 128.407 250.1 127.753 250.1 126.94C250.1 126.113 249.893 125.487 249.48 125.06C249.08 124.62 248.487 124.4 247.7 124.4C247.14 124.4 246.673 124.54 246.3 124.82C245.927 125.1 245.66 125.473 245.5 125.94H242.82V117.38H251.86V119.84ZM256.491 132.14C255.984 132.14 255.564 131.987 255.231 131.68C254.911 131.36 254.751 130.967 254.751 130.5C254.751 130.033 254.911 129.647 255.231 129.34C255.564 129.02 255.984 128.86 256.491 128.86C256.984 128.86 257.391 129.02 257.711 129.34C258.031 129.647 258.191 130.033 258.191 130.5C258.191 130.967 258.031 131.36 257.711 131.68C257.391 131.987 256.984 132.14 256.491 132.14ZM269.926 119.84H263.446V123.26C263.726 122.913 264.126 122.633 264.646 122.42C265.166 122.193 265.72 122.08 266.306 122.08C267.373 122.08 268.246 122.313 268.926 122.78C269.606 123.247 270.1 123.847 270.406 124.58C270.713 125.3 270.866 126.073 270.866 126.9C270.866 128.433 270.426 129.667 269.546 130.6C268.68 131.533 267.44 132 265.826 132C264.306 132 263.093 131.62 262.186 130.86C261.28 130.1 260.766 129.107 260.646 127.88H263.366C263.486 128.413 263.753 128.84 264.166 129.16C264.593 129.48 265.133 129.64 265.786 129.64C266.573 129.64 267.166 129.393 267.566 128.9C267.966 128.407 268.166 127.753 268.166 126.94C268.166 126.113 267.96 125.487 267.546 125.06C267.146 124.62 266.553 124.4 265.766 124.4C265.206 124.4 264.74 124.54 264.366 124.82C263.993 125.1 263.726 125.473 263.566 125.94H260.886V117.38H269.926V119.84ZM272.678 121C272.678 119.987 272.971 119.193 273.558 118.62C274.158 118.047 274.924 117.76 275.858 117.76C276.791 117.76 277.551 118.047 278.138 118.62C278.738 119.193 279.038 119.987 279.038 121C279.038 122.027 278.738 122.827 278.138 123.4C277.551 123.973 276.791 124.26 275.858 124.26C274.924 124.26 274.158 123.973 273.558 123.4C272.971 122.827 272.678 122.027 272.678 121ZM285.518 118L277.658 132H274.938L282.778 118H285.518ZM275.838 119.44C275.104 119.44 274.738 119.96 274.738 121C274.738 122.053 275.104 122.58 275.838 122.58C276.198 122.58 276.478 122.453 276.678 122.2C276.878 121.933 276.978 121.533 276.978 121C276.978 119.96 276.598 119.44 275.838 119.44ZM281.458 128.98C281.458 127.953 281.751 127.16 282.338 126.6C282.938 126.027 283.704 125.74 284.638 125.74C285.571 125.74 286.324 126.027 286.898 126.6C287.484 127.16 287.778 127.953 287.778 128.98C287.778 130.007 287.484 130.807 286.898 131.38C286.324 131.953 285.571 132.24 284.638 132.24C283.691 132.24 282.924 131.953 282.338 131.38C281.751 130.807 281.458 130.007 281.458 128.98ZM284.618 127.42C283.858 127.42 283.478 127.94 283.478 128.98C283.478 130.033 283.858 130.56 284.618 130.56C285.364 130.56 285.738 130.033 285.738 128.98C285.738 127.94 285.364 127.42 284.618 127.42Z" fill="#1F1F26"/>
<path d="M22.44 125.272C23.0693 125.389 23.5867 125.704 23.992 126.216C24.3973 126.728 24.6 127.315 24.6 127.976C24.6 128.573 24.4507 129.101 24.152 129.56C23.864 130.008 23.4427 130.36 22.888 130.616C22.3333 130.872 21.6773 131 20.92 131H16.104V119.832H20.712C21.4693 119.832 22.12 119.955 22.664 120.2C23.2187 120.445 23.6347 120.787 23.912 121.224C24.2 121.661 24.344 122.157 24.344 122.712C24.344 123.363 24.168 123.907 23.816 124.344C23.4747 124.781 23.016 125.091 22.44 125.272ZM18.344 124.44H20.392C20.9253 124.44 21.336 124.323 21.624 124.088C21.912 123.843 22.056 123.496 22.056 123.048C22.056 122.6 21.912 122.253 21.624 122.008C21.336 121.763 20.9253 121.64 20.392 121.64H18.344V124.44ZM20.6 129.176C21.144 129.176 21.5653 129.048 21.864 128.792C22.1733 128.536 22.328 128.173 22.328 127.704C22.328 127.224 22.168 126.851 21.848 126.584C21.528 126.307 21.096 126.168 20.552 126.168H18.344V129.176H20.6ZM25.8092 126.536C25.8092 125.64 25.9852 124.845 26.3372 124.152C26.6999 123.459 27.1853 122.925 27.7933 122.552C28.4119 122.179 29.0999 121.992 29.8573 121.992C30.5186 121.992 31.0946 122.125 31.5853 122.392C32.0866 122.659 32.4866 122.995 32.7853 123.4V122.136H35.0413V131H32.7853V129.704C32.4973 130.12 32.0973 130.467 31.5853 130.744C31.0839 131.011 30.5026 131.144 29.8413 131.144C29.0946 131.144 28.4119 130.952 27.7933 130.568C27.1853 130.184 26.6999 129.645 26.3372 128.952C25.9852 128.248 25.8092 127.443 25.8092 126.536ZM32.7853 126.568C32.7853 126.024 32.6786 125.56 32.4653 125.176C32.2519 124.781 31.9639 124.483 31.6013 124.28C31.2386 124.067 30.8493 123.96 30.4333 123.96C30.0173 123.96 29.6333 124.061 29.2812 124.264C28.9293 124.467 28.6413 124.765 28.4173 125.16C28.2039 125.544 28.0973 126.003 28.0973 126.536C28.0973 127.069 28.2039 127.539 28.4173 127.944C28.6413 128.339 28.9293 128.643 29.2812 128.856C29.6439 129.069 30.0279 129.176 30.4333 129.176C30.8493 129.176 31.2386 129.075 31.6013 128.872C31.9639 128.659 32.2519 128.36 32.4653 127.976C32.6786 127.581 32.7853 127.112 32.7853 126.568ZM42.141 122.008C43.197 122.008 44.0503 122.344 44.701 123.016C45.3517 123.677 45.677 124.605 45.677 125.8V131H43.437V126.104C43.437 125.4 43.261 124.861 42.909 124.488C42.557 124.104 42.077 123.912 41.469 123.912C40.8503 123.912 40.3597 124.104 39.997 124.488C39.645 124.861 39.469 125.4 39.469 126.104V131H37.229V122.136H39.469V123.24C39.7677 122.856 40.1463 122.557 40.605 122.344C41.0743 122.12 41.5863 122.008 42.141 122.008ZM53.0551 131L50.0471 127.224V131H47.8071V119.16H50.0471V125.896L53.0231 122.136H55.9351L52.0311 126.584L55.9671 131H53.0551ZM67.8594 119.832V121.64H63.2034V124.504H66.7714V126.28H63.2034V131H60.9634V119.832H67.8594ZM70.5838 121.08C70.1891 121.08 69.8584 120.957 69.5918 120.712C69.3358 120.456 69.2078 120.141 69.2078 119.768C69.2078 119.395 69.3358 119.085 69.5918 118.84C69.8584 118.584 70.1891 118.456 70.5838 118.456C70.9784 118.456 71.3038 118.584 71.5598 118.84C71.8264 119.085 71.9598 119.395 71.9598 119.768C71.9598 120.141 71.8264 120.456 71.5598 120.712C71.3038 120.957 70.9784 121.08 70.5838 121.08ZM71.6878 122.136V131H69.4478V122.136H71.6878ZM78.7969 131L76.9729 128.248L75.3569 131H72.9569L75.8529 126.552L72.9249 122.136H75.4529L77.2609 124.872L78.8929 122.136H81.2929L78.3809 126.552L81.3249 131H78.7969ZM90.7815 126.376C90.7815 126.696 90.7602 126.984 90.7175 127.24H84.2375C84.2908 127.88 84.5148 128.381 84.9095 128.744C85.3042 129.107 85.7895 129.288 86.3655 129.288C87.1975 129.288 87.7895 128.931 88.1415 128.216H90.5575C90.3015 129.069 89.8108 129.773 89.0855 130.328C88.3602 130.872 87.4695 131.144 86.4135 131.144C85.5602 131.144 84.7922 130.957 84.1095 130.584C83.4375 130.2 82.9095 129.661 82.5255 128.968C82.1522 128.275 81.9655 127.475 81.9655 126.568C81.9655 125.651 82.1522 124.845 82.5255 124.152C82.8988 123.459 83.4215 122.925 84.0935 122.552C84.7655 122.179 85.5388 121.992 86.4135 121.992C87.2562 121.992 88.0082 122.173 88.6695 122.536C89.3415 122.899 89.8588 123.416 90.2215 124.088C90.5948 124.749 90.7815 125.512 90.7815 126.376ZM88.4615 125.736C88.4508 125.16 88.2428 124.701 87.8375 124.36C87.4322 124.008 86.9362 123.832 86.3495 123.832C85.7948 123.832 85.3255 124.003 84.9415 124.344C84.5682 124.675 84.3388 125.139 84.2535 125.736H88.4615ZM91.8405 126.536C91.8405 125.64 92.0165 124.845 92.3685 124.152C92.7312 123.459 93.2218 122.925 93.8405 122.552C94.4592 122.179 95.1472 121.992 95.9045 121.992C96.4805 121.992 97.0298 122.12 97.5525 122.376C98.0752 122.621 98.4912 122.952 98.8005 123.368V119.16H101.073V131H98.8005V129.688C98.5232 130.125 98.1338 130.477 97.6325 130.744C97.1312 131.011 96.5498 131.144 95.8885 131.144C95.1418 131.144 94.4592 130.952 93.8405 130.568C93.2218 130.184 92.7312 129.645 92.3685 128.952C92.0165 128.248 91.8405 127.443 91.8405 126.536ZM98.8165 126.568C98.8165 126.024 98.7098 125.56 98.4965 125.176C98.2832 124.781 97.9952 124.483 97.6325 124.28C97.2698 124.067 96.8805 123.96 96.4645 123.96C96.0485 123.96 95.6645 124.061 95.3125 124.264C94.9605 124.467 94.6725 124.765 94.4485 125.16C94.2352 125.544 94.1285 126.003 94.1285 126.536C94.1285 127.069 94.2352 127.539 94.4485 127.944C94.6725 128.339 94.9605 128.643 95.3125 128.856C95.6752 129.069 96.0592 129.176 96.4645 129.176C96.8805 129.176 97.2698 129.075 97.6325 128.872C97.9952 128.659 98.2832 128.36 98.4965 127.976C98.7098 127.581 98.8165 127.112 98.8165 126.568ZM110.977 119.832C112.15 119.832 113.179 120.061 114.065 120.52C114.961 120.979 115.649 121.635 116.129 122.488C116.619 123.331 116.865 124.312 116.865 125.432C116.865 126.552 116.619 127.533 116.129 128.376C115.649 129.208 114.961 129.853 114.065 130.312C113.179 130.771 112.15 131 110.977 131H107.073V119.832H110.977ZM110.897 129.096C112.07 129.096 112.977 128.776 113.617 128.136C114.257 127.496 114.577 126.595 114.577 125.432C114.577 124.269 114.257 123.363 113.617 122.712C112.977 122.051 112.07 121.72 110.897 121.72H109.313V129.096H110.897ZM126.782 126.376C126.782 126.696 126.76 126.984 126.718 127.24H120.238C120.291 127.88 120.515 128.381 120.91 128.744C121.304 129.107 121.79 129.288 122.366 129.288C123.198 129.288 123.79 128.931 124.142 128.216H126.558C126.302 129.069 125.811 129.773 125.086 130.328C124.36 130.872 123.47 131.144 122.414 131.144C121.56 131.144 120.792 130.957 120.11 130.584C119.438 130.2 118.91 129.661 118.526 128.968C118.152 128.275 117.965 127.475 117.965 126.568C117.965 125.651 118.152 124.845 118.526 124.152C118.899 123.459 119.422 122.925 120.094 122.552C120.766 122.179 121.539 121.992 122.414 121.992C123.256 121.992 124.008 122.173 124.67 122.536C125.342 122.899 125.859 123.416 126.222 124.088C126.595 124.749 126.782 125.512 126.782 126.376ZM124.462 125.736C124.451 125.16 124.243 124.701 123.838 124.36C123.432 124.008 122.936 123.832 122.35 123.832C121.795 123.832 121.326 124.003 120.942 124.344C120.568 124.675 120.339 125.139 120.254 125.736H124.462ZM130.657 123.416C130.945 123.011 131.339 122.675 131.841 122.408C132.353 122.131 132.934 121.992 133.585 121.992C134.342 121.992 135.025 122.179 135.633 122.552C136.251 122.925 136.737 123.459 137.089 124.152C137.451 124.835 137.633 125.629 137.633 126.536C137.633 127.443 137.451 128.248 137.089 128.952C136.737 129.645 136.251 130.184 135.633 130.568C135.025 130.952 134.342 131.144 133.585 131.144C132.934 131.144 132.358 131.011 131.857 130.744C131.366 130.477 130.966 130.141 130.657 129.736V135.224H128.417V122.136H130.657V123.416ZM135.345 126.536C135.345 126.003 135.233 125.544 135.009 125.16C134.795 124.765 134.507 124.467 134.145 124.264C133.793 124.061 133.409 123.96 132.993 123.96C132.587 123.96 132.203 124.067 131.841 124.28C131.489 124.483 131.201 124.781 130.977 125.176C130.763 125.571 130.657 126.035 130.657 126.568C130.657 127.101 130.763 127.565 130.977 127.96C131.201 128.355 131.489 128.659 131.841 128.872C132.203 129.075 132.587 129.176 132.993 129.176C133.409 129.176 133.793 129.069 134.145 128.856C134.507 128.643 134.795 128.339 135.009 127.944C135.233 127.549 135.345 127.08 135.345 126.536ZM143.196 131.144C142.343 131.144 141.575 130.957 140.892 130.584C140.21 130.2 139.671 129.661 139.276 128.968C138.892 128.275 138.7 127.475 138.7 126.568C138.7 125.661 138.898 124.861 139.292 124.168C139.698 123.475 140.247 122.941 140.94 122.568C141.634 122.184 142.407 121.992 143.26 121.992C144.114 121.992 144.887 122.184 145.58 122.568C146.274 122.941 146.818 123.475 147.212 124.168C147.618 124.861 147.82 125.661 147.82 126.568C147.82 127.475 147.612 128.275 147.196 128.968C146.791 129.661 146.236 130.2 145.532 130.584C144.839 130.957 144.06 131.144 143.196 131.144ZM143.196 129.192C143.602 129.192 143.98 129.096 144.332 128.904C144.695 128.701 144.983 128.403 145.196 128.008C145.41 127.613 145.516 127.133 145.516 126.568C145.516 125.725 145.292 125.08 144.844 124.632C144.407 124.173 143.868 123.944 143.228 123.944C142.588 123.944 142.05 124.173 141.612 124.632C141.186 125.08 140.972 125.725 140.972 126.568C140.972 127.411 141.18 128.061 141.596 128.52C142.023 128.968 142.556 129.192 143.196 129.192ZM152.855 131.144C152.13 131.144 151.479 131.016 150.903 130.76C150.327 130.493 149.869 130.136 149.527 129.688C149.197 129.24 149.015 128.744 148.983 128.2H151.239C151.282 128.541 151.447 128.824 151.735 129.048C152.034 129.272 152.402 129.384 152.839 129.384C153.266 129.384 153.597 129.299 153.831 129.128C154.077 128.957 154.199 128.739 154.199 128.472C154.199 128.184 154.05 127.971 153.751 127.832C153.463 127.683 152.999 127.523 152.359 127.352C151.698 127.192 151.154 127.027 150.727 126.856C150.311 126.685 149.949 126.424 149.639 126.072C149.341 125.72 149.191 125.245 149.191 124.648C149.191 124.157 149.33 123.709 149.607 123.304C149.895 122.899 150.301 122.579 150.823 122.344C151.357 122.109 151.981 121.992 152.695 121.992C153.751 121.992 154.594 122.259 155.223 122.792C155.853 123.315 156.199 124.024 156.263 124.92H154.119C154.087 124.568 153.938 124.291 153.671 124.088C153.415 123.875 153.069 123.768 152.631 123.768C152.226 123.768 151.911 123.843 151.687 123.992C151.474 124.141 151.367 124.349 151.367 124.616C151.367 124.915 151.517 125.144 151.815 125.304C152.114 125.453 152.578 125.608 153.207 125.768C153.847 125.928 154.375 126.093 154.791 126.264C155.207 126.435 155.565 126.701 155.863 127.064C156.173 127.416 156.333 127.885 156.343 128.472C156.343 128.984 156.199 129.443 155.911 129.848C155.634 130.253 155.229 130.573 154.695 130.808C154.173 131.032 153.559 131.144 152.855 131.144ZM159.318 121.08C158.923 121.08 158.593 120.957 158.326 120.712C158.07 120.456 157.942 120.141 157.942 119.768C157.942 119.395 158.07 119.085 158.326 118.84C158.593 118.584 158.923 118.456 159.318 118.456C159.713 118.456 160.038 118.584 160.294 118.84C160.561 119.085 160.694 119.395 160.694 119.768C160.694 120.141 160.561 120.456 160.294 120.712C160.038 120.957 159.713 121.08 159.318 121.08ZM160.422 122.136V131H158.182V122.136H160.422ZM165.243 123.976V128.264C165.243 128.563 165.313 128.781 165.451 128.92C165.601 129.048 165.846 129.112 166.187 129.112H167.227V131H165.819C163.931 131 162.987 130.083 162.987 128.248V123.976H161.931V122.136H162.987V119.944H165.243V122.136H167.227V123.976H165.243Z" fill="white"/>
<rect width="452" height="62" fill="#1DA0DB"/>
<path d="M464.648 28.296V24.48H471.296V42H467.024V28.296H464.648ZM474.103 33C474.103 30.248 474.631 28.08 475.687 26.496C476.759 24.912 478.479 24.12 480.847 24.12C483.215 24.12 484.927 24.912 485.983 26.496C487.055 28.08 487.591 30.248 487.591 33C487.591 35.784 487.055 37.968 485.983 39.552C484.927 41.136 483.215 41.928 480.847 41.928C478.479 41.928 476.759 41.136 475.687 39.552C474.631 37.968 474.103 35.784 474.103 33ZM483.559 33C483.559 31.384 483.383 30.144 483.031 29.28C482.679 28.4 481.951 27.96 480.847 27.96C479.743 27.96 479.015 28.4 478.663 29.28C478.311 30.144 478.135 31.384 478.135 33C478.135 34.088 478.199 34.992 478.327 35.712C478.455 36.416 478.711 36.992 479.095 37.44C479.495 37.872 480.079 38.088 480.847 38.088C481.615 38.088 482.191 37.872 482.575 37.44C482.975 36.992 483.239 36.416 483.367 35.712C483.495 34.992 483.559 34.088 483.559 33ZM489.424 28.896C489.424 27.6 489.792 26.6 490.528 25.896C491.28 25.192 492.248 24.84 493.432 24.84C494.616 24.84 495.576 25.192 496.312 25.896C497.048 26.6 497.416 27.6 497.416 28.896C497.416 30.192 497.048 31.192 496.312 31.896C495.576 32.6 494.616 32.952 493.432 32.952C492.248 32.952 491.28 32.6 490.528 31.896C489.792 31.192 489.424 30.192 489.424 28.896ZM505.72 25.104L496.48 42H492.52L501.76 25.104H505.72ZM493.408 27.24C492.64 27.24 492.256 27.792 492.256 28.896C492.256 29.984 492.64 30.528 493.408 30.528C493.776 30.528 494.064 30.392 494.272 30.12C494.48 29.848 494.584 29.44 494.584 28.896C494.584 27.792 494.192 27.24 493.408 27.24ZM500.848 38.208C500.848 36.912 501.216 35.912 501.952 35.208C502.688 34.504 503.648 34.152 504.832 34.152C506.016 34.152 506.976 34.504 507.712 35.208C508.448 35.912 508.816 36.912 508.816 38.208C508.816 39.504 508.448 40.504 507.712 41.208C506.976 41.912 506.016 42.264 504.832 42.264C503.648 42.264 502.688 41.912 501.952 41.208C501.216 40.504 500.848 39.504 500.848 38.208ZM504.808 36.552C504.44 36.552 504.152 36.688 503.944 36.96C503.752 37.232 503.656 37.648 503.656 38.208C503.656 39.296 504.04 39.84 504.808 39.84C505.176 39.84 505.464 39.704 505.672 39.432C505.88 39.16 505.984 38.752 505.984 38.208C505.984 37.664 505.88 37.256 505.672 36.984C505.464 36.696 505.176 36.552 504.808 36.552Z" fill="#1EA2DB"/>
<path d="M465.494 10.727V14.696C465.494 15.254 465.629 15.668 465.899 15.938C466.175 16.208 466.556 16.343 467.042 16.343C467.522 16.343 467.897 16.208 468.167 15.938C468.443 15.668 468.581 15.254 468.581 14.696V10.727H469.4V14.687C469.4 15.209 469.295 15.65 469.085 16.01C468.875 16.364 468.59 16.628 468.23 16.802C467.876 16.976 467.477 17.063 467.033 17.063C466.589 17.063 466.187 16.976 465.827 16.802C465.473 16.628 465.191 16.364 464.981 16.01C464.777 15.65 464.675 15.209 464.675 14.687V10.727H465.494ZM471.585 12.977C471.747 12.695 471.987 12.461 472.305 12.275C472.629 12.083 473.004 11.987 473.43 11.987C473.868 11.987 474.264 12.092 474.618 12.302C474.978 12.512 475.26 12.809 475.464 13.193C475.668 13.571 475.77 14.012 475.77 14.516C475.77 15.014 475.668 15.458 475.464 15.848C475.26 16.238 474.978 16.541 474.618 16.757C474.264 16.973 473.868 17.081 473.43 17.081C473.01 17.081 472.638 16.988 472.314 16.802C471.996 16.61 471.753 16.373 471.585 16.091V19.34H470.766V12.068H471.585V12.977ZM474.933 14.516C474.933 14.144 474.858 13.82 474.708 13.544C474.558 13.268 474.354 13.058 474.096 12.914C473.844 12.77 473.565 12.698 473.259 12.698C472.959 12.698 472.68 12.773 472.422 12.923C472.17 13.067 471.966 13.28 471.81 13.562C471.66 13.838 471.585 14.159 471.585 14.525C471.585 14.897 471.66 15.224 471.81 15.506C471.966 15.782 472.17 15.995 472.422 16.145C472.68 16.289 472.959 16.361 473.259 16.361C473.565 16.361 473.844 16.289 474.096 16.145C474.354 15.995 474.558 15.782 474.708 15.506C474.858 15.224 474.933 14.894 474.933 14.516ZM477.847 12.743V15.65C477.847 15.89 477.898 16.061 478 16.163C478.102 16.259 478.279 16.307 478.531 16.307H479.134V17H478.396C477.94 17 477.598 16.895 477.37 16.685C477.142 16.475 477.028 16.13 477.028 15.65V12.743H476.389V12.068H477.028V10.826H477.847V12.068H479.134V12.743H477.847ZM482.278 17.081C481.816 17.081 481.396 16.976 481.018 16.766C480.646 16.556 480.352 16.259 480.136 15.875C479.926 15.485 479.821 15.035 479.821 14.525C479.821 14.021 479.929 13.577 480.145 13.193C480.367 12.803 480.667 12.506 481.045 12.302C481.423 12.092 481.846 11.987 482.314 11.987C482.782 11.987 483.205 12.092 483.583 12.302C483.961 12.506 484.258 12.8 484.474 13.184C484.696 13.568 484.807 14.015 484.807 14.525C484.807 15.035 484.693 15.485 484.465 15.875C484.243 16.259 483.94 16.556 483.556 16.766C483.172 16.976 482.746 17.081 482.278 17.081ZM482.278 16.361C482.572 16.361 482.848 16.292 483.106 16.154C483.364 16.016 483.571 15.809 483.727 15.533C483.889 15.257 483.97 14.921 483.97 14.525C483.97 14.129 483.892 13.793 483.736 13.517C483.58 13.241 483.376 13.037 483.124 12.905C482.872 12.767 482.599 12.698 482.305 12.698C482.005 12.698 481.729 12.767 481.477 12.905C481.231 13.037 481.033 13.241 480.883 13.517C480.733 13.793 480.658 14.129 480.658 14.525C480.658 14.927 480.73 15.266 480.874 15.542C481.024 15.818 481.222 16.025 481.468 16.163C481.714 16.295 481.984 16.361 482.278 16.361Z" fill="#1EA2DB"/>
<path d="M20.016 36.336H25.536V39H16.656V22.248H20.016V36.336ZM29.3756 24.12C28.7836 24.12 28.2876 23.936 27.8876 23.568C27.5036 23.184 27.3116 22.712 27.3116 22.152C27.3116 21.592 27.5036 21.128 27.8876 20.76C28.2876 20.376 28.7836 20.184 29.3756 20.184C29.9676 20.184 30.4556 20.376 30.8396 20.76C31.2396 21.128 31.4396 21.592 31.4396 22.152C31.4396 22.712 31.2396 23.184 30.8396 23.568C30.4556 23.936 29.9676 24.12 29.3756 24.12ZM31.0316 25.704V39H27.6716V25.704H31.0316ZM33.4873 32.328C33.4873 31 33.7593 29.824 34.3033 28.8C34.8633 27.76 35.6153 26.952 36.5593 26.376C37.5033 25.8 38.5433 25.512 39.6793 25.512C40.6233 25.512 41.4553 25.696 42.1753 26.064C42.9113 26.416 43.5033 26.872 43.9513 27.432V25.704H47.3353V45.336H43.9513V37.176C43.5033 37.752 42.9033 38.232 42.1513 38.616C41.3993 39 40.5513 39.192 39.6073 39.192C38.4873 39.192 37.4553 38.904 36.5113 38.328C35.5833 37.736 34.8473 36.92 34.3033 35.88C33.7593 34.84 33.4873 33.656 33.4873 32.328ZM43.9513 32.352C43.9513 31.536 43.7833 30.832 43.4473 30.24C43.1113 29.648 42.6713 29.2 42.1273 28.896C41.5993 28.592 41.0313 28.44 40.4233 28.44C39.8313 28.44 39.2633 28.592 38.7193 28.896C38.1913 29.2 37.7593 29.648 37.4233 30.24C37.0873 30.816 36.9193 31.512 36.9193 32.328C36.9193 33.144 37.0873 33.856 37.4233 34.464C37.7593 35.056 38.1913 35.504 38.7193 35.808C39.2633 36.112 39.8313 36.264 40.4233 36.264C41.0313 36.264 41.5993 36.112 42.1273 35.808C42.6713 35.504 43.1113 35.056 43.4473 34.464C43.7833 33.872 43.9513 33.168 43.9513 32.352ZM63.1689 25.704V39H59.7849V37.32C59.3529 37.896 58.7849 38.352 58.0809 38.688C57.3929 39.008 56.6409 39.168 55.8249 39.168C54.7849 39.168 53.8649 38.952 53.0649 38.52C52.2649 38.072 51.6329 37.424 51.1689 36.576C50.7209 35.712 50.4969 34.688 50.4969 33.504V25.704H53.8569V33.024C53.8569 34.08 54.1209 34.896 54.6489 35.472C55.1769 36.032 55.8969 36.312 56.8089 36.312C57.7369 36.312 58.4649 36.032 58.9929 35.472C59.5209 34.896 59.7849 34.08 59.7849 33.024V25.704H63.1689ZM68.1881 24.12C67.5961 24.12 67.1001 23.936 66.7001 23.568C66.3161 23.184 66.1241 22.712 66.1241 22.152C66.1241 21.592 66.3161 21.128 66.7001 20.76C67.1001 20.376 67.5961 20.184 68.1881 20.184C68.7801 20.184 69.2681 20.376 69.6521 20.76C70.0521 21.128 70.2521 21.592 70.2521 22.152C70.2521 22.712 70.0521 23.184 69.6521 23.568C69.2681 23.936 68.7801 24.12 68.1881 24.12ZM69.8441 25.704V39H66.4841V25.704H69.8441ZM76.5238 36.336H82.0438V39H73.1638V22.248H76.5238V36.336ZM90.0834 39.216C88.8034 39.216 87.6514 38.936 86.6274 38.376C85.6034 37.8 84.7954 36.992 84.2034 35.952C83.6274 34.912 83.3394 33.712 83.3394 32.352C83.3394 30.992 83.6354 29.792 84.2274 28.752C84.8354 27.712 85.6594 26.912 86.6994 26.352C87.7394 25.776 88.8994 25.488 90.1794 25.488C91.4594 25.488 92.6194 25.776 93.6594 26.352C94.6994 26.912 95.5154 27.712 96.1074 28.752C96.7154 29.792 97.0194 30.992 97.0194 32.352C97.0194 33.712 96.7074 34.912 96.0834 35.952C95.4754 36.992 94.6434 37.8 93.5874 38.376C92.5474 38.936 91.3794 39.216 90.0834 39.216ZM90.0834 36.288C90.6914 36.288 91.2594 36.144 91.7874 35.856C92.3314 35.552 92.7634 35.104 93.0834 34.512C93.4034 33.92 93.5634 33.2 93.5634 32.352C93.5634 31.088 93.2274 30.12 92.5554 29.448C91.8994 28.76 91.0914 28.416 90.1314 28.416C89.1714 28.416 88.3634 28.76 87.7074 29.448C87.0674 30.12 86.7474 31.088 86.7474 32.352C86.7474 33.616 87.0594 34.592 87.6834 35.28C88.3234 35.952 89.1234 36.288 90.0834 36.288ZM98.6201 32.304C98.6201 30.96 98.8841 29.768 99.4121 28.728C99.9561 27.688 100.684 26.888 101.596 26.328C102.524 25.768 103.556 25.488 104.692 25.488C105.684 25.488 106.548 25.688 107.284 26.088C108.036 26.488 108.636 26.992 109.084 27.6V25.704H112.468V39H109.084V37.056C108.652 37.68 108.052 38.2 107.284 38.616C106.532 39.016 105.66 39.216 104.668 39.216C103.548 39.216 102.524 38.928 101.596 38.352C100.684 37.776 99.9561 36.968 99.4121 35.928C98.8841 34.872 98.6201 33.664 98.6201 32.304ZM109.084 32.352C109.084 31.536 108.924 30.84 108.604 30.264C108.284 29.672 107.852 29.224 107.308 28.92C106.764 28.6 106.18 28.44 105.556 28.44C104.932 28.44 104.356 28.592 103.828 28.896C103.3 29.2 102.868 29.648 102.532 30.24C102.212 30.816 102.052 31.504 102.052 32.304C102.052 33.104 102.212 33.808 102.532 34.416C102.868 35.008 103.3 35.464 103.828 35.784C104.372 36.104 104.948 36.264 105.556 36.264C106.18 36.264 106.764 36.112 107.308 35.808C107.852 35.488 108.284 35.04 108.604 34.464C108.924 33.872 109.084 33.168 109.084 32.352ZM123.118 25.512C124.702 25.512 125.982 26.016 126.958 27.024C127.934 28.016 128.422 29.408 128.422 31.2V39H125.062V31.656C125.062 30.6 124.798 29.792 124.27 29.232C123.742 28.656 123.022 28.368 122.11 28.368C121.182 28.368 120.446 28.656 119.902 29.232C119.374 29.792 119.11 30.6 119.11 31.656V39H115.75V25.704H119.11V27.36C119.558 26.784 120.126 26.336 120.814 26.016C121.518 25.68 122.286 25.512 123.118 25.512ZM136.705 39.216C135.617 39.216 134.641 39.024 133.777 38.64C132.913 38.24 132.225 37.704 131.713 37.032C131.217 36.36 130.945 35.616 130.897 34.8H134.281C134.345 35.312 134.593 35.736 135.025 36.072C135.473 36.408 136.025 36.576 136.681 36.576C137.321 36.576 137.817 36.448 138.169 36.192C138.537 35.936 138.721 35.608 138.721 35.208C138.721 34.776 138.497 34.456 138.049 34.248C137.617 34.024 136.921 33.784 135.961 33.528C134.969 33.288 134.153 33.04 133.513 32.784C132.889 32.528 132.345 32.136 131.881 31.608C131.433 31.08 131.209 30.368 131.209 29.472C131.209 28.736 131.417 28.064 131.833 27.456C132.265 26.848 132.873 26.368 133.657 26.016C134.457 25.664 135.393 25.488 136.465 25.488C138.049 25.488 139.313 25.888 140.257 26.688C141.201 27.472 141.721 28.536 141.817 29.88H138.601C138.553 29.352 138.329 28.936 137.929 28.632C137.545 28.312 137.025 28.152 136.369 28.152C135.761 28.152 135.289 28.264 134.953 28.488C134.633 28.712 134.473 29.024 134.473 29.424C134.473 29.872 134.697 30.216 135.145 30.456C135.593 30.68 136.289 30.912 137.233 31.152C138.193 31.392 138.985 31.64 139.609 31.896C140.233 32.152 140.769 32.552 141.217 33.096C141.681 33.624 141.921 34.328 141.937 35.208C141.937 35.976 141.721 36.664 141.289 37.272C140.873 37.88 140.265 38.36 139.465 38.712C138.681 39.048 137.761 39.216 136.705 39.216Z" fill="white"/>
</svg>
