<svg id="Layer_1" data-name="Layer 1" xmlns="http://www.w3.org/2000/svg" viewBox="0 0 103.98 77.98"><defs><style>.cls-1{fill:#fff;}</style></defs><path class="cls-1" d="M282.87,357a3.25,3.25,0,0,0-3.24,3.25v4.49l35,28.76a11.37,11.37,0,0,0,14.44,0l35-28.76v-4.49a3.26,3.26,0,0,0-3.25-3.25Zm-3.24,20.35v34.89a3.25,3.25,0,0,0,3.24,3.25h78a3.26,3.26,0,0,0,3.25-3.25V377.38l-28.84,23.68a21.12,21.12,0,0,1-26.81,0Zm-9.75-17.1a13,13,0,0,1,13-13h78a13,13,0,0,1,13,13v52a13,13,0,0,1-13,13h-78a13,13,0,0,1-13-13Z" transform="translate(-269.88 -347.28)"/></svg>