<svg id="Layer_1" data-name="Layer 1" xmlns="http://www.w3.org/2000/svg" viewBox="0 0 141.73 141.73"><defs><style>.cls-1{fill:#fff;}.cls-2{fill:none;stroke:#4361ad;stroke-miterlimit:10;stroke-width:1.2px;}</style></defs><rect class="cls-1" width="141.73" height="141.73"/><path class="cls-2" d="M272.13,421.1s-5.69-7.56-9.35-3.68c0,0,3.33-.63,2.08.67,0,0,1.56-.8,2.2.53,0,0,3,.28,1.65,1.15Z" transform="translate(-224.21 -350.56)"/><path class="cls-2" d="M272.24,423.11s-9.5-.42-8.8,4.85c0,0,1.62-2.95,1.84-1.17,0,0,.36-1.71,1.81-1.36,0,0,2.13-2.15,1.94-.54Z" transform="translate(-224.21 -350.56)"/><path class="cls-2" d="M278.61,451.32s.55-17.07,16.75-22.32,29.22,4.6,32.53,13c0,0-15.44-1.2-27.79,3.39A114.94,114.94,0,0,1,278.61,451.32Z" transform="translate(-224.21 -350.56)"/><path class="cls-2" d="M260.19,451.9a14.28,14.28,0,0,0,7.72,1.46s-9.11-17.06-6-32.24,5.88-16.63,5.88-16.63-6.76,19.41-4.41,25.09c0,0,1.62,15.61,9.56,22.91,0,0-5.29-16.34-.59-26.55,0,0-1.76,18.67,1,20.57,0,0,2.06,9.33,11.47,5.39s25-7.29,25-7.29,19.11-5,33.51,5.25c0,0-15.87-5.69-29.1-1.6s-21.91,5.83-21.91,5.83S269.09,459.78,260.19,451.9Z" transform="translate(-224.21 -350.56)"/><path class="cls-2" d="M279.52,457.74s20-2.92,26.32-5.69,24.14-7.62,37.7,1.68c0,0-19.4-6-33.07,0S279.52,457.74,279.52,457.74Z" transform="translate(-224.21 -350.56)"/><path class="cls-2" d="M339.86,435.19s3.53-4,3.23,2.41c0,0,2.26-2.11-.75-4,0,0-.71-.35.15-1.06l-1.2-.15s-.15-3.67-3.72-1.66C337.57,430.71,341.66,430.66,339.86,435.19Z" transform="translate(-224.21 -350.56)"/><path class="cls-2" d="M326.41,432.16s5.95-5.66,5.45,3.4c0,0,3.8-3-1.27-5.66,0,0-1.2-.5.25-1.49l-2-.21s-.26-5.17-6.27-2.34C322.55,425.86,329.45,425.79,326.41,432.16Z" transform="translate(-224.21 -350.56)"/><path class="cls-2" d="M268.94,400.85s3.67-18.82-6.62-18.24l2.5,2.77-1.76,1.17,3.38,2-1.32.73,2.35,4.67h-1.32Z" transform="translate(-224.21 -350.56)"/><path class="cls-2" d="M266,399s-6.17-11.52-14.85-8c0,0,6.32.44,3.38,1.6,0,0,3.24-.43,3.68,1.46,0,0,5.29,1.46,2.35,2Z" transform="translate(-224.21 -350.56)"/><path class="cls-2" d="M273.66,421.47s.61-10.94-6.83-11.67c0,0,4.16,2.75,1.65,2.49,0,0,2.41.92,1.91,2.5,0,0,3,3.11.76,2.42Z" transform="translate(-224.21 -350.56)"/><path class="cls-2" d="M270.25,401.66s9-9.49,16.46-3.84c0,0-6.21-1.24-3.69.66,0,0-3-1.27-3.93.44,0,0-5.5,0-2.82,1.36Z" transform="translate(-224.21 -350.56)"/><path class="cls-2" d="M269.88,403.7s11.29-6.69,16.89.76c0,0-5.64-2.87-3.73-.36,0,0-2.54-2-3.91-.64,0,0-5.29-1.47-3.08.54Z" transform="translate(-224.21 -350.56)"/><path class="cls-2" d="M274.08,422.11s6.92-6.86,12.28-2.48c0,0-4.57-1.07-2.75.4,0,0-2.19-1-2.92.24,0,0-4.07-.11-2.12.94Z" transform="translate(-224.21 -350.56)"/><path class="cls-2" d="M275.6,422.19s8.77-.79,10.25,5.45c0,0-2.73-3.43-2.21-1.32,0,0-1-2-2.25-1.55,0,0-2.88-2.47-2.05-.58Z" transform="translate(-224.21 -350.56)"/><path class="cls-2" d="M273.7,423.52s8.48,4,6.3,10.34c0,0-.55-4.52-1.27-2.37,0,0,.19-2.33-1.19-2.58,0,0-1.24-3.73-1.55-1.6Z" transform="translate(-224.21 -350.56)"/><path class="cls-2" d="M270,404.48s9.43,4.45,7,11.5c0,0-.62-5-1.42-2.63,0,0,.21-2.59-1.32-2.86,0,0-1.38-4.16-1.72-1.79Z" transform="translate(-224.21 -350.56)"/><path class="cls-2" d="M265.31,400.64s-10.8-7.44-16.9-.39c0,0,5.82-2.48,3.75-.11,0,0,2.67-1.86,3.94-.37,0,0,5.38-1.11,3,.75Z" transform="translate(-224.21 -350.56)"/><path class="cls-2" d="M267.69,403.65s-16.34,1.14-20.84,14.91c0,0,6.08-8.19,4.54-3.53,0,0,2.49-4.6,4.66-4,0,0,6.12-6.18,4-1.88Z" transform="translate(-224.21 -350.56)"/><path class="cls-2" d="M277,389s-4.11,4.52-4,6.27l-1.33-.43-.44,3.5,3.38-2.34-.44-.58,2.35-2.33S275,392,277,389Z" transform="translate(-224.21 -350.56)"/><path class="cls-2" d="M325.55,415l6.17-5.79L344.29,402s6.41-5.13-3.7-3.25l-12.94,6.07-14.68.5a.17.17,0,0,0,0,.33c3.44.9,12.4,3.8-2.05,6.57,0,0-2.83,2.86-7-1.9l-3,.8s5.91,6.64-2.1,4.55l8,2.09,19-6.64Z" transform="translate(-224.21 -350.56)"/></svg>