<svg id="Layer_1" data-name="Layer 1" xmlns="http://www.w3.org/2000/svg" viewBox="0 0 141.73 141.73"><defs><style>.cls-1,.cls-2,.cls-4{fill:none;}.cls-2,.cls-4{stroke:#4361ad;stroke-miterlimit:10;}.cls-2{stroke-linecap:round;stroke-width:6px;}.cls-3{fill:#4361ad;}.cls-4{stroke-width:2px;}</style></defs><rect class="cls-1" width="141.73" height="141.73"/><path class="cls-2" d="M335.47,382.43,256.22,463a13.12,13.12,0,0,0-3.61,12.09c1,4.2,4.22,7.63,14.79,3.76" transform="translate(-226.58 -352.78)"/><path class="cls-3" d="M339.16,458.17s19.55-32.12-8.37-66.32c0,0-27.23-35.26-78.19-13.61,0,0,40.49-1.75,38.39,19.19,0,0,22.34,2.35,28.63,28.23C319.62,425.66,339.51,427.8,339.16,458.17Z" transform="translate(-226.58 -352.78)"/><path class="cls-4" d="M290.64,416.63l-12.56-1.94s2.79-29.82-25.48-36.45" transform="translate(-226.58 -352.78)"/></svg>