<svg id="Layer_1" data-name="Layer 1" xmlns="http://www.w3.org/2000/svg" xmlns:xlink="http://www.w3.org/1999/xlink" viewBox="0 0 141.73 141.73"><defs><style>.cls-1,.cls-3,.cls-7{fill:none;}.cls-2{fill:#fff;}.cls-3,.cls-7{stroke:#4361ad;stroke-miterlimit:10;}.cls-3{stroke-width:1.5px;}.cls-4{isolation:isolate;}.cls-5{clip-path:url(#clip-path);}.cls-6{fill:#f7931e;}.cls-7{stroke-width:2.5px;}</style><clipPath id="clip-path" transform="translate(-223.91 -351.26)"><polygon class="cls-1" points="297.05 413.84 296.81 393.06 312.16 392.36 312.39 413.14 297.05 413.84"/></clipPath></defs><rect class="cls-2" width="141.73" height="141.73"/><circle class="cls-3" cx="78.74" cy="49.2" r="23.57"/><ellipse class="cls-3" cx="78.74" cy="49.2" rx="20.03" ry="19.67"/><g class="cls-4"><g class="cls-5"><path class="cls-6" d="M298.29,393l-1.45,2,2.78-.06h.23c.17,0,.41,0,.7,0l10.21-.21,1.4-2-13.87.28" transform="translate(-223.91 -351.26)"/><path class="cls-6" d="M308.19,396.74a3.14,3.14,0,0,1-.17,1.91l2.62,0,1.44-1.89-3.89,0m-9.92.07-1.38,2.07,8.06-.17a3.31,3.31,0,0,0-.26-1.95l-6.42.05" transform="translate(-223.91 -351.26)"/><path class="cls-6" d="M300.61,394.87c1.27.05,3.32.37,4.08,1.89a3.31,3.31,0,0,1,.26,1.95,6.43,6.43,0,0,1-.21,1s-.51,2.53-5.57,2.76a15.2,15.2,0,0,1-1.78,0l0,1.79,7.94,9.17,3.65-.08-8-9.37s6.34-.58,7.06-5.28h0a3.14,3.14,0,0,0,.17-1.91,3.81,3.81,0,0,0-1.23-2l-6.35.13m-.76,0h-.28l1,0h-.06c-.29,0-.53,0-.7,0" transform="translate(-223.91 -351.26)"/></g></g><path class="cls-7" d="M268.23,458.82v3.71l-11.92,1.59L250,431.54l13.51-1.35,1.32,5.59s11.39-10.06,27.28-2.91c0,0,8.21,1.32,17.48-4s10.36,12.41-13.21,11.62c0,0,15.65-2.42,22.75-8.45,11.12-9.44,19.46-10.19,19.46-10.19s8.83,2.05-24.39,28.14a18.4,18.4,0,0,1-10.88,3.92l-25.25.65S272.2,451.41,268.23,458.82Z" transform="translate(-223.91 -351.26)"/><line class="cls-7" x1="40.93" y1="84.73" x2="44.31" y2="107.56"/></svg>