<svg id="Layer_1" data-name="Layer 1" xmlns="http://www.w3.org/2000/svg" viewBox="0 0 141.73 141.73"><defs><style>.cls-1{fill:#fff;}.cls-2,.cls-3{fill:none;stroke:#4361ad;stroke-miterlimit:10;}.cls-2{stroke-width:2.5px;}.cls-4{fill:#f7941d;}</style></defs><rect class="cls-1" width="141.73" height="141.73"/><path class="cls-2" d="M292.68,404.45c-1.74,1.7-42.41,40.11-13.42,52.74a16,16,0,0,0,6.26,1.27l28.24.12a29.05,29.05,0,0,0,8.19-1.11c8-2.3,23.61-9.2-8.27-53,0,0,9.5-22.5,2-20a27.47,27.47,0,0,0-9.43,5.42,4.3,4.3,0,0,1-4.9.55l-2.26-1.21a2.59,2.59,0,0,0-2.72.15l-3.7,2.56a3.33,3.33,0,0,1-3,.4C286.28,391.13,279.64,389.83,292.68,404.45Z" transform="translate(-232.82 -352.52)"/><path class="cls-2" d="M326.18,410.45s0-9.5-12.5-6a37.62,37.62,0,0,1-22.17-.32" transform="translate(-232.82 -352.52)"/><path class="cls-3" d="M320.81,397.51" transform="translate(-232.82 -352.52)"/><path class="cls-3" d="M310.83,405.14" transform="translate(-232.82 -352.52)"/><path class="cls-2" d="M320.81,392.45s-.22,10-8.36,12.32-17.25,1-16.58-7.26" transform="translate(-232.82 -352.52)"/><path class="cls-2" d="M306.75,397.51a7.15,7.15,0,0,1-5.11,7.63c-6,2.12-5,7.37-5,7.37" transform="translate(-232.82 -352.52)"/><path class="cls-2" d="M301.64,411.2V406s7.44,1.27,5.15,6.52" transform="translate(-232.82 -352.52)"/><circle class="cls-2" cx="68.86" cy="81.05" r="16.13"/><circle class="cls-2" cx="68.8" cy="81.05" r="19.71"/><polygon class="cls-4" points="76.98 71.24 62.3 70.87 60.73 72.8 75.48 73.18 76.98 71.24"/><polygon class="cls-4" points="76.85 75.35 62.23 74.78 60.74 76.85 75.31 77.22 76.85 75.35"/><path class="cls-4" d="M296.45,425.4s7.19-.38,5.43,5.16c0,0-.71,3.15-7.81,2.47l-.06,1.83,8.31,9.81,3.86.1-8.35-10s6.72-.31,7.52-5.09a3.42,3.42,0,0,0-1.08-4.07Z" transform="translate(-232.82 -352.52)"/></svg>