<svg id="Layer_1" data-name="Layer 1" xmlns="http://www.w3.org/2000/svg" viewBox="0 0 500 500"><defs><style>.cls-1,.cls-3{fill:#fff;}.cls-10,.cls-2,.cls-4,.cls-5,.cls-6,.cls-7,.cls-8,.cls-9{fill:none;}.cls-2,.cls-6{stroke:#00a79d;}.cls-10,.cls-2,.cls-3,.cls-4,.cls-5,.cls-6,.cls-7,.cls-8,.cls-9{stroke-miterlimit:10;}.cls-2,.cls-4,.cls-5{stroke-width:8px;}.cls-3{stroke:#ed1c24;}.cls-4{stroke:#262262;}.cls-5,.cls-8{stroke:#27aae1;}.cls-6,.cls-7,.cls-8,.cls-9{stroke-width:5px;}.cls-7{stroke:#1c75bc;}.cls-9{stroke:#2e3192;}.cls-10{stroke:#4261ad;stroke-width:10px;}</style></defs><rect class="cls-1" width="500" height="500"/><path class="cls-2" d="M290.57,412.9l26.31,128a9.89,9.89,0,0,0,12.69,7.3c28.57-8.84,104.42-42.72,97.19-152a9.82,9.82,0,0,0-11.9-8.85Z" transform="translate(-47.64 -170.94)"/><path class="cls-3" d="M200.62,511.5" transform="translate(-47.64 -170.94)"/><path class="cls-1" d="M289.83,413.89" transform="translate(-47.64 -170.94)"/><path class="cls-4" d="M289.7,415.16,278,284.48a9.88,9.88,0,0,0-11.8-8.81c-24.91,5-85.9,24-110.76,91.47a13,13,0,0,0,9.08,17.05Z" transform="translate(-47.64 -170.94)"/><path class="cls-5" d="M288.68,415,166,384.54a8.71,8.71,0,0,0-10.77,7.8c-1.59,20.72-1.15,69.09,31,108A8.7,8.7,0,0,0,199,501Z" transform="translate(-47.64 -170.94)"/><path class="cls-6" d="M281.06,121.82h5.25a7.88,7.88,0,0,1,7.88,7.88v35.63a0,0,0,0,1,0,0h-21a0,0,0,0,1,0,0V129.7A7.88,7.88,0,0,1,281.06,121.82Z"/><path class="cls-7" d="M340.37,82.82h3.91a8.31,8.31,0,0,1,8.31,8.31v74.1a0,0,0,0,1,0,0H332.06a0,0,0,0,1,0,0V91.13A8.31,8.31,0,0,1,340.37,82.82Z"/><path class="cls-8" d="M310,102.45h6.2a7.31,7.31,0,0,1,7.31,7.31v55.57a0,0,0,0,1,0,0H302.72a0,0,0,0,1,0,0V109.75A7.31,7.31,0,0,1,310,102.45Z"/><path class="cls-9" d="M367,72.51h6.06a5.22,5.22,0,0,1,5.22,5.22v87.59a0,0,0,0,1,0,0h-16.5a0,0,0,0,1,0,0V77.73A5.22,5.22,0,0,1,367,72.51Z"/><rect class="cls-7" x="259.81" y="165.32" width="132.75" height="23.62" rx="11.81"/><path class="cls-10" d="M290.08,413.85,184.65,515.26a10.07,10.07,0,0,0,1,15.36c19.3,14.32,67,43.7,124.85,36.13a10.07,10.07,0,0,0,8.55-12Z" transform="translate(-47.64 -170.94)"/></svg>