<svg id="Layer_1" data-name="Layer 1" xmlns="http://www.w3.org/2000/svg" viewBox="0 0 141.73 141.73"><defs><style>.cls-1{fill:#fff;}.cls-2,.cls-3{fill:none;}.cls-2,.cls-3,.cls-4{stroke:#4361ad;stroke-miterlimit:10;}.cls-2{stroke-width:1.2px;}.cls-3,.cls-4{stroke-width:3px;}.cls-4{fill:#4361ad;}</style></defs><rect class="cls-1" width="141.73" height="141.73"/><path class="cls-2" d="M255.26,466.12s25.81-3.77,34-7.34,31.17-9.84,48.67,2.16c0,0-25-7.77-42.69,0S255.26,466.12,255.26,466.12Z" transform="translate(-228.1 -351.01)"/><path class="cls-2" d="M237.68,481.24s37.94-5.54,49.93-10.8,45.82-14.46,71.55,3.18c0,0-36.82-11.41-62.76,0S237.68,481.24,237.68,481.24Z" transform="translate(-228.1 -351.01)"/><polyline class="cls-3" points="58.77 51.04 48.35 62.5 48.35 97.91"/><line class="cls-3" x1="79.95" y1="5.72" x2="79.95" y2="95.83"/><polyline class="cls-3" points="86.2 14.77 94.53 24.49 94.53 100.34"/><polyline class="cls-3" points="99.74 71.7 106.68 77.08 106.68 99.65"/><polyline class="cls-4" points="79.95 22.35 62.93 35.42 62.93 97.91 79.95 95.83"/></svg>