<svg id="Layer_1" data-name="Layer 1" xmlns="http://www.w3.org/2000/svg" viewBox="0 0 1290.5 389"><defs><style>.cls-1{fill:#265ae9;}.cls-2{font-size:41.69px;}.cls-2,.cls-4,.cls-5{fill:#fff;font-family:TimesNewRomanPS-BoldMT, Times New Roman;font-weight:700;}.cls-3{letter-spacing:-0.07em;}.cls-4{font-size:26px;}.cls-5{font-size:24px;}.cls-6{fill:none;stroke:#265ae9;stroke-miterlimit:10;stroke-width:2px;}</style></defs><rect class="cls-1" x="289.59" y="157.5" width="163.15" height="76" rx="5"/><rect class="cls-1" x="530.32" y="140.52" width="238.18" height="110.95" rx="10"/><rect class="cls-1" x="854.07" y="163.5" width="163.15" height="76" rx="5"/><rect class="cls-1" width="110.58" height="103" rx="10"/><rect class="cls-1" y="139" width="110.58" height="103" rx="10"/><rect class="cls-1" y="280" width="110.58" height="103" rx="10"/><rect class="cls-1" x="1179.92" y="6" width="110.58" height="103" rx="10"/><rect class="cls-1" x="1179.92" y="146" width="110.58" height="103" rx="10"/><rect class="cls-1" x="1179.92" y="286" width="110.58" height="103" rx="10"/><text class="cls-2" transform="translate(559.72 188.34) scale(1.13 1)"><tspan class="cls-3">T</tspan><tspan x="24.71" y="0">ypes of</tspan><tspan x="0" y="41.69">schemes</tspan></text><text class="cls-4" transform="translate(873.11 206) scale(0.91 1)">Constitution</text><text class="cls-4" transform="translate(316.43 190) scale(0.91 1)">Investment<tspan x="0" y="26">Objective</tspan></text><text class="cls-5" transform="translate(11.16 41) scale(0.94 1)">Equity<tspan x="0" y="28.8">Oriented</tspan></text><text class="cls-4" transform="translate(9.61 184.14) scale(1.32 1)">Debt <tspan x="0" y="26">Based</tspan></text><text class="cls-4" transform="translate(9.16 338.47) scale(1.15 1)">Hybrid</text><text class="cls-5" transform="translate(1199.14 46) scale(1.15 1)">Open<tspan x="0" y="26">Ended</tspan></text><text class="cls-5" transform="translate(1198.05 190) scale(1.2 1)">Closed<tspan x="0" y="28.8">Ended</tspan></text><text class="cls-5" transform="translate(1191.14 338.88) scale(1.13 1)">Interval</text><line class="cls-6" x1="467.44" y1="189.5" x2="529.5" y2="189.5"/><polygon class="cls-1" points="473.06 196.91 469.91 189.5 473.06 182.09 455.5 189.5 473.06 196.91"/><line class="cls-6" x1="767.98" y1="196" x2="840.56" y2="196.43"/><polygon class="cls-1" points="834.9 203.8 838.09 196.41 834.99 188.99 852.5 196.5 834.9 203.8"/><line class="cls-6" x1="1016.77" y1="197" x2="1082.03" y2="197"/><line class="cls-6" x1="1082.03" y1="72" x2="1082.03" y2="324"/><line class="cls-6" x1="204.85" y1="65.5" x2="204.85" y2="317.5"/><line class="cls-6" x1="290.05" y1="195" x2="204.85" y2="195"/><line class="cls-6" x1="1082.03" y1="72" x2="1167.98" y2="72"/><polygon class="cls-1" points="1162.36 79.41 1165.51 72 1162.36 64.59 1179.92 72 1162.36 79.41"/><line class="cls-6" x1="1082.03" y1="197" x2="1167.98" y2="197"/><polygon class="cls-1" points="1162.36 204.41 1165.51 197 1162.36 189.59 1179.92 197 1162.36 204.41"/><line class="cls-6" x1="1082.03" y1="324" x2="1167.98" y2="324"/><polygon class="cls-1" points="1162.36 331.41 1165.51 324 1162.36 316.59 1179.92 324 1162.36 331.41"/><line class="cls-6" x1="204.85" y1="65" x2="122.52" y2="65"/><polygon class="cls-1" points="128.14 57.59 124.99 65 128.14 72.41 110.58 65 128.14 57.59"/><line class="cls-6" x1="204.85" y1="195" x2="122.52" y2="195"/><polygon class="cls-1" points="128.14 187.59 124.99 195 128.14 202.41 110.58 195 128.14 187.59"/><line class="cls-6" x1="204.85" y1="317" x2="122.52" y2="317"/><polygon class="cls-1" points="128.14 309.59 124.99 317 128.14 324.41 110.58 317 128.14 309.59"/></svg>