<svg id="Layer_1" data-name="Layer 1" xmlns="http://www.w3.org/2000/svg" xmlns:xlink="http://www.w3.org/1999/xlink" viewBox="0 0 354.33 354.33"><defs><style>.cls-1,.cls-2{fill:none;}.cls-2{stroke:#4361ad;stroke-miterlimit:10;stroke-width:1.5px;}.cls-3{isolation:isolate;}.cls-4{clip-path:url(#clip-path);}.cls-5{fill:#f7931e;}</style><clipPath id="clip-path" transform="translate(-135.91 -164.04)"><polygon class="cls-1" points="279.15 422.11 277.73 296.46 370.53 292.24 371.95 417.88 279.15 422.11"/></clipPath></defs><circle class="cls-2" cx="177.17" cy="177.17" r="142.51"/><ellipse class="cls-2" cx="177.17" cy="177.17" rx="121.11" ry="118.91"/><g class="cls-3"><g class="cls-4"><path class="cls-5" d="M286.7,296.06l-8.84,11.8,22.81-.47h0l-6.2.13s.6-.06,1.64-.11,2.68-.08,4.56,0l38.45-.79h0l23-.48,8.47-11.8-83.85,1.73" transform="translate(-135.91 -164.04)"/><path class="cls-5" d="M346.53,318.68a18.86,18.86,0,0,1-1,11.58l15.86-.32,8.69-11.43-23.52.17m-60,.43-8.38,12.54,48.78-1a20.15,20.15,0,0,0-1.58-11.81l-38.82.28" transform="translate(-135.91 -164.04)"/><path class="cls-5" d="M300.63,307.39h0c7.63.27,20.08,2.19,24.72,11.44A20.15,20.15,0,0,1,327,330.64a39.81,39.81,0,0,1-1.25,5.78s-3.15,15.29-33.64,16.68c-3.28.15-6.87.13-10.81-.07L281,363.85l48,55.43,22.06-.45-48.24-56.64s38.33-3.57,42.64-31.93h0a18.86,18.86,0,0,0,1-11.58,23,23,0,0,0-7.44-12.07h0l-38.45.79m-4.56,0c-1,0-1.64.11-1.64.11l6.2-.13c-1.88-.06-3.47,0-4.56,0" transform="translate(-135.91 -164.04)"/></g></g><circle class="cls-1" cx="177.17" cy="177.17" r="177.17"/></svg>