<svg id="Layer_1" data-name="Layer 1" xmlns="http://www.w3.org/2000/svg" viewBox="0 0 351.47 351.47"><defs><style>.cls-1,.cls-3{fill:none;}.cls-1{stroke:#4361ad;stroke-width:4px;}.cls-1,.cls-2{stroke-miterlimit:10;}.cls-2{fill:#4361ad;stroke:#37489e;}</style></defs><line class="cls-1" x1="175.47" y1="92.88" x2="175.47" y2="340.38"/><path class="cls-1" d="M307,394.5S317.5,359,355.75,362s42-11,42-11" transform="translate(-131.53 -198.12)"/><path class="cls-1" d="M307,494.45S317.5,459,355.75,462s42-11,42-11" transform="translate(-131.53 -198.12)"/><path class="cls-1" d="M306.75,414s-10.5,35.5-48.75,32.5-42,11-42,11" transform="translate(-131.53 -198.12)"/><path class="cls-1" d="M306.75,365.5S296.25,330,258,333s-42-11-42-11" transform="translate(-131.53 -198.12)"/><path class="cls-2" d="M320.6,219a29.15,29.15,0,0,0-29.45.93c-5.62,3.65-10.44,9.61-9.89,19.3a28.25,28.25,0,0,0,7.39,17.3c5.77,6.36,16,19.39,18.4,34,0,0,5.9-19.11,18.69-33.34a28.9,28.9,0,0,0,7.38-15.76C334,234.08,332.1,225.09,320.6,219Zm-13.33,21.32a8.28,8.28,0,1,1,8.27-8.28A8.28,8.28,0,0,1,307.27,240.35Z" transform="translate(-131.53 -198.12)"/><path class="cls-2" d="M229.78,249.62a29.12,29.12,0,0,0-29.45.92c-5.62,3.65-10.44,9.61-9.89,19.31a28.25,28.25,0,0,0,7.39,17.29c5.76,6.36,16,19.39,18.4,34,0,0,5.9-19.11,18.68-33.34A28.88,28.88,0,0,0,242.3,272C243.18,264.66,241.28,255.67,229.78,249.62Zm-13.34,21.31a8.28,8.28,0,1,1,8.28-8.28A8.28,8.28,0,0,1,216.44,270.93Z" transform="translate(-131.53 -198.12)"/><path class="cls-2" d="M229.34,387a29.16,29.16,0,0,0-29.46.93c-5.62,3.65-10.43,9.61-9.88,19.3a28.25,28.25,0,0,0,7.39,17.3c5.76,6.36,16,19.39,18.39,34,0,0,5.91-19.11,18.69-33.34a29,29,0,0,0,7.39-15.76C242.74,402,240.84,393,229.34,387ZM216,408.29a8.28,8.28,0,1,1,8.28-8.28A8.28,8.28,0,0,1,216,408.29Z" transform="translate(-131.53 -198.12)"/><path class="cls-2" d="M411.09,279.1a29.14,29.14,0,0,0-29.46.93c-5.62,3.64-10.43,9.61-9.88,19.3a28.25,28.25,0,0,0,7.39,17.29c5.76,6.36,16,19.39,18.39,34,0,0,5.91-19.11,18.69-33.34a29,29,0,0,0,7.39-15.76C424.49,294.14,422.59,285.15,411.09,279.1Zm-13.34,21.31a8.28,8.28,0,1,1,8.28-8.28A8.28,8.28,0,0,1,397.75,300.41Z" transform="translate(-131.53 -198.12)"/><path class="cls-2" d="M411.28,378.1a29.14,29.14,0,0,0-29.46.93c-5.62,3.64-10.43,9.61-9.88,19.3a28.18,28.18,0,0,0,7.38,17.29c5.77,6.36,16,19.39,18.4,34,0,0,5.91-19.11,18.69-33.34a28.87,28.87,0,0,0,7.38-15.76C424.68,393.14,422.77,384.15,411.28,378.1Zm-13.34,21.31a8.28,8.28,0,1,1,8.28-8.28A8.27,8.27,0,0,1,397.94,399.41Z" transform="translate(-131.53 -198.12)"/><circle class="cls-3" cx="175.73" cy="175.73" r="175.73"/></svg>