<svg id="Layer_1" data-name="Layer 1" xmlns="http://www.w3.org/2000/svg" viewBox="0 0 354.33 354.33"><defs><style>.cls-1{fill:#4260ac;}.cls-1,.cls-2,.cls-3,.cls-4{stroke:#4361ad;stroke-miterlimit:10;}.cls-1,.cls-3{stroke-width:3px;}.cls-2,.cls-3,.cls-4,.cls-5{fill:none;}.cls-2{stroke-linecap:round;stroke-width:5px;}.cls-4{stroke-width:2px;}</style></defs><path class="cls-1" d="M264.42,162l-60.36,26.4v55.9a46.53,46.53,0,0,0,16.34,35.42l43.9,37.47,43.9-37.47a46.53,46.53,0,0,0,16.34-35.42V188.4Zm48.25,82.34a37.28,37.28,0,0,1-13.09,28.36l-35.16,30-35.17-30a37.27,37.27,0,0,1-13.08-28.36V199.57l48.34-21.14,48.16,21.14Z" transform="translate(-87.25 -113.41)"/><polyline class="cls-2" points="150.01 132.78 167.79 146.41 204.08 96.38"/><path class="cls-3" d="M198.41,355.19l-36.08-36.41s-13.46-26.67-15.24-41.27a7.67,7.67,0,0,1,6.1-8.61c4-.67,9.42,1.93,14.22,15.86a60.24,60.24,0,0,0,6.53,13.37l18.41,23.31c-9.54-9.44-36.11-53.92,20.86-10.85,0,0,27.67,6.81,28.74,44.6Z" transform="translate(-87.25 -113.41)"/><rect class="cls-3" x="105.04" y="241.78" width="59.07" height="45.82" rx="3.94"/><path class="cls-3" d="M331.12,356l36.08-36.4s13.46-26.68,15.24-41.28a7.66,7.66,0,0,0-6.1-8.61c-4-.67-9.41,1.93-14.22,15.86A59.81,59.81,0,0,1,355.59,299L337.18,322.3c9.54-9.45,36.11-53.93-20.86-10.86,0,0-27.67,6.81-28.74,44.6Z" transform="translate(-87.25 -113.41)"/><rect class="cls-3" x="190.91" y="242.63" width="59.07" height="45.82" rx="3.94"/><rect class="cls-4" x="144.45" y="247.93" width="7.5" height="7.5" rx="3.35"/><rect class="cls-4" x="200.33" y="247.93" width="7.5" height="7.5" rx="3.35"/><circle class="cls-5" cx="177.17" cy="177.17" r="177.17"/></svg>