<svg id="Layer_1" data-name="Layer 1" xmlns="http://www.w3.org/2000/svg" xmlns:xlink="http://www.w3.org/1999/xlink" viewBox="0 0 354.33 354.33"><defs><style>.cls-1,.cls-11,.cls-12,.cls-14,.cls-17,.cls-18,.cls-19,.cls-2,.cls-20,.cls-21,.cls-22,.cls-3,.cls-5,.cls-6,.cls-7{fill:none;}.cls-11,.cls-12,.cls-2,.cls-22,.cls-23,.cls-3,.cls-5,.cls-6,.cls-7{stroke:#4361ad;}.cls-11,.cls-12,.cls-14,.cls-15,.cls-17,.cls-18,.cls-19,.cls-2,.cls-20,.cls-21,.cls-22,.cls-23,.cls-3,.cls-5,.cls-6,.cls-7{stroke-miterlimit:10;}.cls-2{stroke-width:5px;}.cls-3{stroke-linecap:round;stroke-width:6px;}.cls-23,.cls-4{fill:#4361ad;}.cls-5{stroke-width:2px;}.cls-6{stroke-width:1.2px;}.cls-7{stroke-width:1.5px;}.cls-8{isolation:isolate;}.cls-9{clip-path:url(#clip-path);}.cls-10{fill:#f7931e;}.cls-11{stroke-width:2.5px;}.cls-13{fill:#f7941d;}.cls-14{stroke:#00a79d;}.cls-14,.cls-15,.cls-17,.cls-18,.cls-19,.cls-20,.cls-21,.cls-22,.cls-23{stroke-width:3px;}.cls-15,.cls-16{fill:#fff;}.cls-15{stroke:#ed1c24;}.cls-17{stroke:#262262;}.cls-18{stroke:#27aae1;}.cls-19{stroke:#1c75bc;}.cls-20{stroke:#2e3192;}.cls-21{stroke:#4261ad;}</style><clipPath id="clip-path" transform="translate(-77.83 -70.46)"><polygon class="cls-1" points="223.95 255.18 223.87 248.01 228.95 247.78 229.03 254.95 223.95 255.18"/></clipPath></defs><path class="cls-2" d="M319.61,273.44,206.9,275.37l-47.65-86.49,208.31-2.46a6.59,6.59,0,0,1,5.6,10.18L325,270.46A6.56,6.56,0,0,1,319.61,273.44Z" transform="translate(-77.83 -70.46)"/><path class="cls-2" d="M103.5,170.38h43.24l12.51,18.5,47.65,86.49-20.29,39.39a7.54,7.54,0,0,0,6.78,11L364,323.82" transform="translate(-77.83 -70.46)"/><rect class="cls-1" x="203.35" y="151.61" width="57.66" height="57.66"/><path class="cls-3" d="M325.48,233.79l-32.24,30.33a4.7,4.7,0,0,0-1.47,4.55c.41,1.58,1.72,2.87,6,1.41" transform="translate(-77.83 -70.46)"/><path class="cls-4" d="M327,262.3s7.95-12.09-3.41-25c0,0-11.07-13.27-31.8-5.13,0,0,16.47-.65,15.62,7.23A14.07,14.07,0,0,1,319,250.06S327.12,250.87,327,262.3Z" transform="translate(-77.83 -70.46)"/><path class="cls-5" d="M307.24,246.66l-5.11-.73s1.14-11.22-10.36-13.72" transform="translate(-77.83 -70.46)"/><path class="cls-6" d="M248.32,254.46s-2.74-3.57-4.51-1.74c0,0,1.6-.3,1,.32,0,0,.75-.38,1.06.24,0,0,1.46.14.8.55Z" transform="translate(-77.83 -70.46)"/><path class="cls-6" d="M248.37,255.4s-4.58-.2-4.24,2.29c0,0,.78-1.39.89-.55,0,0,.17-.81.87-.64,0,0,1-1,.93-.25Z" transform="translate(-77.83 -70.46)"/><path class="cls-6" d="M251.44,268.72s.26-8.06,8.08-10.54,14.08,2.17,15.67,6.15c0,0-7.44-.57-13.39,1.6A56.54,56.54,0,0,1,251.44,268.72Z" transform="translate(-77.83 -70.46)"/><path class="cls-6" d="M242.56,269a7,7,0,0,0,3.72.69s-4.39-8.05-2.9-15.21,2.83-7.85,2.83-7.85-3.26,9.15-2.12,11.84c0,0,.78,7.37,4.6,10.81,0,0-2.55-7.71-.28-12.53,0,0-.85,8.81.49,9.71,0,0,1,4.4,5.53,2.54a88.43,88.43,0,0,1,12.05-3.44s9.21-2.34,16.15,2.48c0,0-7.65-2.69-14-.76S258,270,258,270,246.85,272.71,242.56,269Z" transform="translate(-77.83 -70.46)"/><path class="cls-6" d="M251.88,271.75s9.64-1.38,12.68-2.69,11.64-3.6,18.18.79c0,0-9.36-2.84-15.94,0S251.88,271.75,251.88,271.75Z" transform="translate(-77.83 -70.46)"/><path class="cls-6" d="M281,261.1s1.71-1.9,1.56,1.14c0,0,1.09-1-.36-1.9,0,0-.35-.16.07-.49l-.58-.08s-.07-1.73-1.79-.78C279.86,259,281.83,259,281,261.1Z" transform="translate(-77.83 -70.46)"/><path class="cls-6" d="M274.48,259.68s2.87-2.68,2.63,1.6c0,0,1.83-1.4-.62-2.67,0,0-.57-.24.13-.7l-1-.11s-.12-2.43-3-1.1C272.62,256.7,276,256.67,274.48,259.68Z" transform="translate(-77.83 -70.46)"/><path class="cls-6" d="M246.78,244.9s1.77-8.88-3.19-8.61l1.21,1.31-.86.55,1.63,1-.63.34,1.13,2.2h-.64Z" transform="translate(-77.83 -70.46)"/><path class="cls-6" d="M245.36,244s-3-5.44-7.15-3.78c0,0,3,.2,1.63.75,0,0,1.55-.2,1.77.69,0,0,2.55.69,1.13,1Z" transform="translate(-77.83 -70.46)"/><path class="cls-6" d="M249.05,254.63s.3-5.16-3.29-5.51c0,0,2,1.3.8,1.18,0,0,1.16.43.92,1.18,0,0,1.46,1.47.36,1.14Z" transform="translate(-77.83 -70.46)"/><path class="cls-6" d="M247.41,245.28s4.35-4.48,7.93-1.81c0,0-3-.58-1.77.31,0,0-1.45-.6-1.9.21,0,0-2.65,0-1.36.64Z" transform="translate(-77.83 -70.46)"/><path class="cls-6" d="M247.23,246.25s5.44-3.16,8.14.35c0,0-2.72-1.35-1.8-.17,0,0-1.22-1-1.88-.3,0,0-2.55-.69-1.48.26Z" transform="translate(-77.83 -70.46)"/><path class="cls-6" d="M249.26,254.93s3.33-3.23,5.92-1.17c0,0-2.21-.5-1.33.19,0,0-1-.48-1.41.11,0,0-2-.05-1,.45Z" transform="translate(-77.83 -70.46)"/><path class="cls-6" d="M250,255s4.23-.37,4.94,2.57c0,0-1.31-1.62-1.07-.62,0,0-.49-1-1.08-.73,0,0-1.39-1.17-1-.27Z" transform="translate(-77.83 -70.46)"/><path class="cls-6" d="M249.07,255.6s4.09,1.88,3,4.87c0,0-.26-2.12-.61-1.11,0,0,.09-1.1-.57-1.22,0,0-.6-1.76-.75-.76Z" transform="translate(-77.83 -70.46)"/><path class="cls-6" d="M247.3,246.61s4.55,2.1,3.38,5.43c0,0-.29-2.37-.68-1.24,0,0,.1-1.22-.64-1.35,0,0-.66-2-.83-.85Z" transform="translate(-77.83 -70.46)"/><path class="cls-6" d="M245,244.8s-5.21-3.51-8.15-.18c0,0,2.81-1.17,1.81-.05,0,0,1.29-.88,1.9-.18,0,0,2.59-.52,1.46.35Z" transform="translate(-77.83 -70.46)"/><path class="cls-6" d="M246.18,246.22s-7.88.54-10.05,7c0,0,2.93-3.87,2.19-1.67,0,0,1.2-2.17,2.25-1.89,0,0,2.94-2.92,1.94-.89Z" transform="translate(-77.83 -70.46)"/><path class="cls-6" d="M250.68,239.32s-2,2.14-1.92,3l-.63-.2-.22,1.65,1.63-1.1-.21-.28,1.13-1.1S249.68,240.7,250.68,239.32Z" transform="translate(-77.83 -70.46)"/><path class="cls-6" d="M274.07,251.56l3-2.73,6.06-3.37s3.09-2.42-1.78-1.54l-6.24,2.87L268,247a.08.08,0,0,0,0,.16c1.66.42,6,1.79-1,3.1,0,0-1.37,1.35-3.39-.9l-1.43.38s2.85,3.14-1,2.15l3.86,1,9.16-3.14Z" transform="translate(-77.83 -70.46)"/><ellipse class="cls-7" cx="147.97" cy="180.11" rx="7.81" ry="8.14"/><ellipse class="cls-7" cx="147.97" cy="180.11" rx="6.63" ry="6.79"/><g class="cls-8"><g class="cls-9"><path class="cls-10" d="M224.36,248l-.48.67,1,0h.27l1.15,0,1,0h0l1.26,0,.47-.67-4.6.09" transform="translate(-77.83 -70.46)"/><path class="cls-10" d="M227.63,249.29a1.15,1.15,0,0,1,0,.66h0l.87,0,.48-.65h-1.3m-3.28,0-.46.71,2.68-.05a1.3,1.3,0,0,0-.09-.68l-2.13,0" transform="translate(-77.83 -70.46)"/><path class="cls-10" d="M225.13,248.64a1.5,1.5,0,0,1,1.35.65,1.3,1.3,0,0,1,.09.68c0,.1,0,.21-.07.32s-.17.88-1.85,1h-.59v.62l2.64,3.17,1.2,0-2.64-3.23s2.1-.2,2.33-1.82h0a1.15,1.15,0,0,0,0-.66,1.32,1.32,0,0,0-.4-.69h0l-1,0-1.12,0m-.25,0h0" transform="translate(-77.83 -70.46)"/></g></g><path class="cls-11" d="M214.4,270.72V272l-3.94.55-2.11-11.25,4.48-.47.43,1.93a8.35,8.35,0,0,1,9-1,9.33,9.33,0,0,0,5.79-1.37c3.07-1.83,3.43,4.28-4.38,4,0,0,5.18-.83,7.53-2.92,3.69-3.26,6.45-3.52,6.45-3.52s2.92.71-8.08,9.72A5.91,5.91,0,0,1,226,269l-8.36.23S215.72,268.16,214.4,270.72Z" transform="translate(-77.83 -70.46)"/><line class="cls-11" x1="135.45" y1="192.38" x2="136.57" y2="200.26"/><path class="cls-11" d="M192.5,211.8c-.27,1.67-7,39.94,14.39,34.95a10.94,10.94,0,0,0,4-1.88l15.79-11.64a20.34,20.34,0,0,0,4.11-4c3.5-4.6,9.34-14.92-26.6-26.12,0,0-4-16.48-7.18-12a19.43,19.43,0,0,0-3,6.94,3,3,0,0,1-2.5,2.34l-1.76.26a1.76,1.76,0,0,0-1.45,1.21l-1,3a2.32,2.32,0,0,1-1.52,1.48C183.41,207,179.17,209.06,192.5,211.8Z" transform="translate(-77.83 -70.46)"/><path class="cls-11" d="M213.66,201.25s-3.94-5.29-9.46,1.84a26.17,26.17,0,0,1-12.49,9" transform="translate(-77.83 -70.46)"/><path class="cls-12" d="M205.3,196.27" transform="translate(-77.83 -70.46)"/><path class="cls-12" d="M202.9,204.66" transform="translate(-77.83 -70.46)"/><path class="cls-11" d="M203.2,193.45s4,5.68.45,10.33-9.2,7.72-12.25,2.83" transform="translate(-77.83 -70.46)"/><path class="cls-11" d="M197.46,202.1a5,5,0,0,1,.32,6.37c-2.44,3.65.26,6.19.26,6.19" transform="translate(-77.83 -70.46)"/><path class="cls-11" d="M200.29,211.85l-2.16-2.91s4.67-2.37,5.57,1.5" transform="translate(-77.83 -70.46)"/><circle class="cls-11" cx="131.75" cy="153.84" r="11.2"/><circle class="cls-11" cx="131.72" cy="153.86" r="13.69"/><polygon class="cls-13" points="132.22 145 123.87 150.88 123.8 152.61 132.18 146.71 132.22 145"/><polygon class="cls-13" points="133.84 147.34 125.46 153.09 125.49 154.86 133.76 149.03 133.84 147.34"/><path class="cls-13" d="M203.29,221.91s3.85-3.19,5.16.63c0,0,.91,2.05-3.33,4.61l.73,1,8.69,2,2.2-1.55-8.8-2.12s3.61-3,2.08-6a2.38,2.38,0,0,0-2.29-1.82Z" transform="translate(-77.83 -70.46)"/><path class="cls-14" d="M273.22,215.69l4,19.42a1.48,1.48,0,0,0,1.92,1.1c4.33-1.34,15.84-6.48,14.74-23.05a1.49,1.49,0,0,0-1.8-1.35Z" transform="translate(-77.83 -70.46)"/><path class="cls-15" d="M259.57,230.65" transform="translate(-77.83 -70.46)"/><path class="cls-16" d="M273.1,215.84" transform="translate(-77.83 -70.46)"/><path class="cls-17" d="M273.08,216l-1.77-19.82a1.5,1.5,0,0,0-1.79-1.34c-3.78.77-13,3.64-16.8,13.88a2,2,0,0,0,1.38,2.58Z" transform="translate(-77.83 -70.46)"/><path class="cls-18" d="M272.93,216l-18.61-4.62a1.32,1.32,0,0,0-1.63,1.18c-.25,3.14-.18,10.48,4.7,16.37a1.31,1.31,0,0,0,1.93.11Z" transform="translate(-77.83 -70.46)"/><path class="cls-14" d="M201.17,127h.8a1.19,1.19,0,0,1,1.19,1.19v5.4a0,0,0,0,1,0,0H200a0,0,0,0,1,0,0v-5.4A1.19,1.19,0,0,1,201.17,127Z"/><path class="cls-19" d="M210.16,121.09h.59a1.26,1.26,0,0,1,1.26,1.26v11.24a0,0,0,0,1,0,0H208.9a0,0,0,0,1,0,0V122.35A1.26,1.26,0,0,1,210.16,121.09Z"/><path class="cls-18" d="M205.56,124.07h.94a1.11,1.11,0,0,1,1.11,1.11v8.43a0,0,0,0,1,0,0h-3.16a0,0,0,0,1,0,0v-8.43A1.11,1.11,0,0,1,205.56,124.07Z"/><path class="cls-20" d="M214.21,119.53h.92a.79.79,0,0,1,.79.79v13.29a0,0,0,0,1,0,0h-2.5a0,0,0,0,1,0,0V120.32A.79.79,0,0,1,214.21,119.53Z"/><rect class="cls-19" x="197.94" y="133.61" width="20.14" height="3.58" rx="1.79"/><path class="cls-21" d="M273.14,215.83l-16,15.38a1.53,1.53,0,0,0,.15,2.33c2.93,2.18,10.16,6.63,18.94,5.49a1.54,1.54,0,0,0,1.3-1.83Z" transform="translate(-77.83 -70.46)"/><path class="cls-6" d="M309.55,210.18s11.31-1.65,14.88-3.22,13.66-4.31,21.32.95c0,0-11-3.41-18.7,0S309.55,210.18,309.55,210.18Z" transform="translate(-77.83 -70.46)"/><path class="cls-6" d="M301.85,216.8s16.62-2.43,21.87-4.73,20.07-6.34,31.35,1.39c0,0-16.13-5-27.5,0S301.85,216.8,301.85,216.8Z" transform="translate(-77.83 -70.46)"/><polyline class="cls-22" points="245.56 111.65 241 116.67 241 132.19"/><line class="cls-22" x1="254.84" y1="91.8" x2="254.84" y2="131.27"/><polyline class="cls-22" points="257.58 95.76 261.23 100.02 261.23 133.25"/><polyline class="cls-22" points="263.51 120.7 266.55 123.06 266.55 132.94"/><polyline class="cls-23" points="254.84 99.08 247.38 104.81 247.38 132.19 254.84 131.27"/><rect class="cls-11" x="230.51" y="197.13" width="7.08" height="14.4" transform="translate(-154.48 133.48) rotate(-41.05)"/><rect class="cls-11" x="235.77" y="180.48" width="7.08" height="24.77" transform="translate(-145.66 134.12) rotate(-41.05)"/><rect class="cls-11" x="246.41" y="178.17" width="7.08" height="18.79" transform="translate(-139.56 139.8) rotate(-41.05)"/><rect class="cls-11" x="252.1" y="162.67" width="7.08" height="27.86" transform="translate(-130.96 140.85) rotate(-41.05)"/><circle class="cls-11" cx="138.01" cy="119.24" r="4.64"/><circle class="cls-11" cx="141.29" cy="102.02" r="4.64"/><circle class="cls-11" cx="158.02" cy="101.82" r="4.64"/><circle class="cls-11" cx="159.57" cy="86.1" r="4.64"/><line class="cls-11" x1="137.55" y1="114.63" x2="140.04" y2="106.77"/><line class="cls-11" x1="145.61" y1="100.32" x2="153.73" y2="100.05"/><line class="cls-11" x1="158.07" y1="96.49" x2="158.88" y2="90.68"/><circle class="cls-2" cx="133.84" cy="301.22" r="22.07"/><circle class="cls-2" cx="254.84" cy="301.22" r="22.07"/><circle class="cls-1" cx="177.17" cy="177.17" r="177.17"/></svg>